<?xml version="1.0" encoding="utf-8"?>
<!-- Generator: Adobe Illustrator 25.3.0, SVG Export Plug-In . SVG Version: 6.00 Build 0)  -->
<svg version="1.1" xmlns="http://www.w3.org/2000/svg" xmlns:xlink="http://www.w3.org/1999/xlink" x="0px" y="0px"
	 width="841.89px" height="595.28px" viewBox="0 0 841.89 595.28" style="enable-background:new 0 0 841.89 595.28;"
	 xml:space="preserve">
<style type="text/css">
	.st0{opacity:0.5;fill:#72B546;}
	.st1{opacity:0.5;fill:#B0562D;}
	.st2{opacity:0.5;fill:#B59E27;}
	.st3{opacity:0.5;fill:#2D9BB5;}
	.st4{opacity:0.5;fill:#763AB0;}
	.st5{opacity:0.5;fill:#2832B5;}
	.st6{opacity:0.5;fill:#9C2A42;}
	.st7{fill:none;stroke:#000000;stroke-width:0.5;stroke-miterlimit:10;}
	.st8{fill:none;stroke:#000000;stroke-miterlimit:10;}
	.st9{opacity:0.6;}
	.st10{fill:none;stroke:#000000;stroke-width:0.25;stroke-miterlimit:10;}
	.st11{fill:none;stroke:#000000;stroke-width:0.25;stroke-miterlimit:10;stroke-dasharray:1.9987,1.9987;}
	.st12{fill:none;}
	.st13{fill:none;stroke:#000000;stroke-width:0.25;stroke-miterlimit:10;stroke-dasharray:2.0051,2.0051;}
	.st14{fill:none;stroke:#000000;stroke-width:0.25;stroke-miterlimit:10;stroke-dasharray:0.9933,4.9663;}
	.st15{fill:#FFFFFF;}
	.st16{opacity:0.5;fill:#7E79C2;}
	.st17{opacity:0.5;fill:#6A4A49;}
	.st18{font-family:'MyriadPro-Cond';}
	.st19{font-size:10px;}
	.st20{font-family:'MyriadPro-SemiboldCond';}
	.st21{font-family:'MyriadPro-LightCondIt';}
	.st22{font-family:'MyriadPro-BoldCond';}
	.st23{font-family:'MyriadPro-LightCond';}
	.st24{font-size:9px;}
	.st25{font-size:9.5px;}
	.st26{font-size:8px;}
</style>
<g id="background">
	<rect x="71.6" y="57.14" class="st1" width="695.91" height="29.37"/>
	<rect x="71.6" y="98.13" class="st2" width="695.91" height="134.48"/>
	<rect x="71.6" y="233.1" class="st0" width="695.56" height="107.68"/>
	<rect x="71.6" y="340.78" class="st3" width="695.56" height="189.24"/>
	<rect x="72.19" y="529.81" class="st4" width="277.98" height="53.79"/>
	<rect x="488.73" y="529.81" class="st4" width="139.67" height="53.79"/>
	<rect x="350.2" y="556.7" class="st4" width="138.53" height="27.3"/>
	<rect x="350.18" y="529.81" class="st5" width="138.55" height="26.9"/>
	<rect x="210.39" y="23.16" class="st5" width="139.81" height="22.49"/>
	<rect x="71.6" y="45.65" class="st6" width="695.91" height="11.49"/>
</g>
<g id="lines">
	<line class="st7" x1="767.51" y1="0" x2="767.16" y2="530.02"/>
	<line class="st8" x1="34.34" y1="23.16" x2="841.89" y2="23.16"/>
	<line class="st8" x1="34.34" y1="45.65" x2="841.53" y2="45.65"/>
	<line class="st7" x1="34.34" y1="57.14" x2="767.51" y2="57.14"/>
	<line class="st8" x1="34.34" y1="98.13" x2="841.53" y2="98.13"/>
	<line class="st8" x1="34.34" y1="85.64" x2="841.53" y2="85.64"/>
	<g>
		<g class="st9">
			<line class="st10" x1="71.6" y1="125.12" x2="72.6" y2="125.12"/>
			<line class="st13" x1="74.6" y1="125.12" x2="839.53" y2="125.12"/>
			<line class="st10" x1="840.53" y1="125.12" x2="841.53" y2="125.12"/>
		</g>
	</g>
	<g>
		<g class="st9">
			<line class="st10" x1="71.6" y1="152.12" x2="72.6" y2="152.12"/>
			<line class="st13" x1="74.6" y1="152.12" x2="839.53" y2="152.12"/>
			<line class="st10" x1="840.53" y1="152.12" x2="841.53" y2="152.12"/>
		</g>
	</g>
	<g>
		<g class="st9">
			<line class="st10" x1="71.6" y1="179.11" x2="72.6" y2="179.11"/>
			<line class="st13" x1="74.6" y1="179.11" x2="839.53" y2="179.11"/>
			<line class="st10" x1="840.53" y1="179.11" x2="841.53" y2="179.11"/>
		</g>
	</g>
	<g>
		<g class="st9">
			<line class="st10" x1="71.6" y1="206.11" x2="72.6" y2="206.11"/>
			<line class="st13" x1="74.6" y1="206.11" x2="839.53" y2="206.11"/>
			<line class="st10" x1="840.53" y1="206.11" x2="841.53" y2="206.11"/>
		</g>
	</g>
	<g>
		<g class="st9">
			<line class="st10" x1="71.6" y1="260.09" x2="72.6" y2="260.09"/>
			<line class="st11" x1="74.6" y1="260.09" x2="765.16" y2="260.09"/>
			<line class="st10" x1="766.16" y1="260.09" x2="767.16" y2="260.09"/>
		</g>
	</g>
	<g>
		<g class="st9">
			<line class="st10" x1="71.6" y1="287.09" x2="72.6" y2="287.09"/>
			<line class="st11" x1="74.6" y1="287.09" x2="765.16" y2="287.09"/>
			<line class="st10" x1="766.16" y1="287.09" x2="767.16" y2="287.09"/>
		</g>
	</g>
	<g>
		<g class="st9">
			<line class="st10" x1="71.6" y1="314.08" x2="72.6" y2="314.08"/>
			<line class="st11" x1="74.6" y1="314.08" x2="765.16" y2="314.08"/>
			<line class="st10" x1="766.16" y1="314.08" x2="767.16" y2="314.08"/>
		</g>
	</g>
	<g>
		<g class="st9">
			<line class="st10" x1="71.6" y1="395.06" x2="72.6" y2="395.06"/>
			<line class="st13" x1="74.6" y1="395.06" x2="839.53" y2="395.06"/>
			<line class="st10" x1="840.53" y1="395.06" x2="841.53" y2="395.06"/>
		</g>
	</g>
	<g>
		<g class="st9">
			<line class="st10" x1="71.6" y1="368.07" x2="72.6" y2="368.07"/>
			<line class="st13" x1="74.6" y1="368.07" x2="839.53" y2="368.07"/>
			<line class="st10" x1="840.53" y1="368.07" x2="841.53" y2="368.07"/>
		</g>
	</g>
	<g>
		<g class="st9">
			<line class="st10" x1="71.6" y1="422.05" x2="72.6" y2="422.05"/>
			<line class="st13" x1="74.6" y1="422.05" x2="839.53" y2="422.05"/>
			<line class="st10" x1="840.53" y1="422.05" x2="841.53" y2="422.05"/>
		</g>
	</g>
	<g>
		<g class="st9">
			<line class="st10" x1="71.6" y1="449.04" x2="72.6" y2="449.04"/>
			<line class="st13" x1="74.6" y1="449.04" x2="839.53" y2="449.04"/>
			<line class="st10" x1="840.53" y1="449.04" x2="841.53" y2="449.04"/>
		</g>
	</g>
	<g>
		<g class="st9">
			<line class="st10" x1="71.6" y1="476.04" x2="72.6" y2="476.04"/>
			<line class="st13" x1="74.6" y1="476.04" x2="839.53" y2="476.04"/>
			<line class="st10" x1="840.53" y1="476.04" x2="841.53" y2="476.04"/>
		</g>
	</g>
	<g>
		<g class="st9">
			<line class="st10" x1="71.6" y1="503.03" x2="72.6" y2="503.03"/>
			<line class="st13" x1="74.6" y1="503.03" x2="839.53" y2="503.03"/>
			<line class="st10" x1="840.53" y1="503.03" x2="841.53" y2="503.03"/>
		</g>
	</g>
	<g>
		<g class="st9">
			<line class="st10" x1="71.6" y1="530.02" x2="72.6" y2="530.02"/>
			<line class="st13" x1="74.6" y1="530.02" x2="839.53" y2="530.02"/>
			<line class="st10" x1="840.53" y1="530.02" x2="841.53" y2="530.02"/>
		</g>
	</g>
	<line class="st8" x1="34.34" y1="233.1" x2="841.53" y2="233.1"/>
	<line class="st8" x1="35.04" y1="341.07" x2="841.53" y2="341.07"/>
	<line class="st8" x1="34.34" y1="530.02" x2="841.53" y2="530.02"/>
	<g>
		<g>
			<line class="st10" x1="34.34" y1="556.86" x2="34.84" y2="556.86"/>
			<line class="st14" x1="39.8" y1="556.86" x2="347.22" y2="556.86"/>
			<line class="st10" x1="349.7" y1="556.86" x2="350.2" y2="556.86"/>
		</g>
	</g>
	<line class="st8" x1="350.2" y1="557.01" x2="488.73" y2="557.01"/>
	<line class="st8" x1="34.34" y1="584" x2="628.82" y2="583.6"/>
	<line class="st7" x1="71.95" y1="0" x2="71.95" y2="583.6"/>
	<line class="st7" x1="211.07" y1="0" x2="211.07" y2="583.6"/>
	<line class="st7" x1="350.18" y1="0" x2="350.18" y2="583.6"/>
	<line class="st7" x1="489.29" y1="0" x2="489.29" y2="583.6"/>
	<line class="st7" x1="628.4" y1="0" x2="628.4" y2="583.6"/>
	<rect x="48.12" y="550.59" class="st15" width="20.41" height="12.56"/>
</g>
<g id="information_text">
	<g>
		<g>
			<g>
				<text transform="matrix(0.7927 0 0 1 124.7246 16.4028)" class="st18 st19">Monday, June 21</text>
			</g>
			<g>
				<text transform="matrix(0.7927 0 0 1 7.3498 16.4028)" class="st20 st19">PDT: Morning Track</text>
			</g>
			<g>
				<text transform="matrix(0.7927 0 0 1 770.0875 580.7554)" class="st21 st19">version 1 ­— June 1, 2021</text>
			</g>
			<g>
				<text transform="matrix(0.7927 0 0 1 263.1387 16.4028)" class="st18 st19">Tuesday, June 22</text>
			</g>
			<g>
				<text transform="matrix(0.7927 0 0 1 397.8545 16.4028)" class="st18 st19">Wednesday, June 23</text>
			</g>
			<g>
				<text transform="matrix(0.7927 0 0 1 539.8896 16.4028)" class="st18 st19">Thursday, June 24</text>
			</g>
			<g>
				<text transform="matrix(0.7927 0 0 1 679.8604 16.4028)" class="st18 st19">Friday, June 25</text>
			</g>
			<g>
				<text transform="matrix(0.7927 0 0 1 770.0879 16.4028)" class="st18 st19">Location</text>
			</g>
		</g>
	</g>
	<g>
		<g>
			<text transform="matrix(0.7927 0 0 1 8 28.3083)" class="st18 st19">6 AM</text>
		</g>
		<g>
			<text transform="matrix(0.7927 0 0 1 8 47.739)" class="st18 st19">7 AM</text>
		</g>
		<g>
			<text transform="matrix(0.7927 0 0 1 8 59.9109)" class="st18 st19">7:10 AM</text>
		</g>
		<g>
			<text transform="matrix(0.7927 0 0 1 8 87.8669)" class="st18 st19">8 AM</text>
		</g>
		<g>
			<text transform="matrix(0.7927 0 0 1 8 100.4851)" class="st18 st19">8:10 AM</text>
		</g>
		<g>
			<text transform="matrix(0.7927 0 0 1 8 235.5173)" class="st18 st19">9 AM</text>
		</g>
		<g>
			<text transform="matrix(0.7927 0 0 1 8 344.9211)" class="st18 st19">10 AM</text>
		</g>
		<g>
			<text transform="matrix(0.7927 0 0 1 8 532.5266)" class="st18 st19">11 AM</text>
		</g>
		<g>
			<text transform="matrix(0.7927 0 0 1 8 560.6736)" class="st18 st19">12 PM</text>
		</g>
		<g>
			<text transform="matrix(0.7927 0 0 1 8 585.758)" class="st18 st19">1 PM</text>
		</g>
	</g>
	<g>
		<text transform="matrix(0.7927 0 0 1 52.0645 95.7047)" class="st22 st19">Break</text>
	</g>
	<g>
		<text transform="matrix(0.7927 0 0 1 770.0878 117.4019)" class="st23 st19">Symposium Hall 1</text>
	</g>
	<g>
		<text transform="matrix(0.7927 0 0 1 770.0876 143.0965)" class="st23 st19">Symposium Hall 2</text>
	</g>
	<g>
		<text transform="matrix(0.7927 0 0 1 770.0881 169.8045)" class="st23 st19">Symposium Hall 3</text>
	</g>
	<g>
		<text transform="matrix(0.7927 0 0 1 770.0878 195.9771)" class="st23 st19">Symposium Hall 4</text>
	</g>
	<g>
		<text transform="matrix(0.7927 0 0 1 770.088 222.2757)" class="st23 st19">Main Auditorium</text>
	</g>
	<g>
		<text transform="matrix(0.7927 0 0 1 770.0883 359.0737)" class="st23 st19">Symposium Hall 1</text>
	</g>
	<g>
		<text transform="matrix(0.7927 0 0 1 770.0878 385.3516)" class="st23 st19">Symposium Hall 2</text>
	</g>
	<g>
		<text transform="matrix(0.7927 0 0 1 770.0882 412.6425)" class="st23 st19">Symposium Hall 3</text>
	</g>
	<g>
		<text transform="matrix(0.7927 0 0 1 770.0876 438.9287)" class="st23 st19">Symposium Hall 4</text>
	</g>
	<g>
		<text transform="matrix(0.7927 0 0 1 770.0883 466.1696)" class="st23 st19">Main Auditorium</text>
	</g>
	<g>
		<text transform="matrix(0.7927 0 0 1 770.088 71.3925)" class="st23 st19">Main Auditorium</text>
	</g>
	<g>
		<text transform="matrix(0.7927 0 0 1 770.0881 493.5894)" class="st23 st19">Exhibitors Hall</text>
	</g>
	<g>
		<text transform="matrix(0.7927 0 0 1 770.0874 520.8383)" class="st23 st19">Open Discussion Tables</text>
	</g>
	<g>
		<text transform="matrix(0.7927 0 0 1 770.0881 277.8398)" class="st23 st19">Posterhall</text>
	</g>
	<g>
		<text transform="matrix(0.7927 0 0 1 770.1735 291.324)"><tspan x="0" y="0" class="st21 st24">All posters are located </tspan><tspan x="0" y="9" class="st21 st24">in the Posterhall</tspan></text>
	</g>
	<g>
		<text transform="matrix(0.7927 0 0 1 770.2878 312.333)"><tspan x="0" y="0" class="st21 st24">Poster Highlights sessions are</tspan><tspan x="0" y="9" class="st21 st24">scheduled for first 30 min of </tspan><tspan x="0" y="18" class="st21 st24">poster session</tspan></text>
	</g>
	<g>
		<text transform="matrix(0.7927 0 0 1 36.202 315.3752)" class="st21 st24">(9-9:30AM)</text>
	</g>
	<g>
		<text transform="matrix(0.7927 0 0 1 13.4823 169.9372)"><tspan x="0" y="0" class="st21 st24">Live summary presentations</tspan><tspan x="27.73" y="12" class="st21 st24">followed by Q&amp;A</tspan></text>
	</g>
	<g>
		<text transform="matrix(0.7927 0 0 1 42.8058 75.7982)" class="st22 st19">Keynotes</text>
	</g>
	<g>
		<text transform="matrix(0.7927 0 0 1 41.9341 155.1928)" class="st22 st19">Symposia</text>
	</g>
	<g>
		<text transform="matrix(0.7927 0 0 1 48.0617 266.8876)" class="st22 st19">Posters</text>
	</g>
	<g>
		<text transform="matrix(0.7927 0 0 1 20.5876 304.7489)" class="st22 st19">Poster Highlights</text>
	</g>
	<g>
		<text transform="matrix(0.7927 0 0 1 49.5045 559.5935)" class="st22 st19">Socials</text>
	</g>
	<g>
		<text transform="matrix(0.7927 0 0 1 33.2382 437.9623)" class="st22 st19">Roundtables</text>
	</g>
	<g>
		<text transform="matrix(0.7927 0 0 1 48.061 55.2243)" class="st22 st19">Awards</text>
	</g>
</g>
<g id="text">
	<g>
		<text transform="matrix(0.8 0 0 1 74.3926 69.4724)"><tspan x="0" y="0" class="st23 st19">Combinatorial Creatures: Cortical Plasticity </tspan><tspan x="0" y="10" class="st23 st19">Within  and Across Lifetimes</tspan></text>
	</g>
	<g>
		<text transform="matrix(0.8 0 0 1 74.3926 543.4026)" class="st23 st19">Welcome reception</text>
	</g>
	<g>
		<text transform="matrix(1 0 0 1 213.7246 32.9421)" class="st21 st24">Philips: </text>
		<text transform="matrix(0.7927 0 0 1 232.7773 32.9421)" class="st23 st19">Diagnostic Confidence in Neuro with Speed </text>
		<text transform="matrix(0.7927 0 0 1 213.7246 42.9421)" class="st23 st19">and Precision</text>
	</g>
	<g>
		<text transform="matrix(0.8 0 0 1 213.7246 69.4723)"><tspan x="0" y="0" class="st23 st19">INS-fMRI: a method for mapping mesoscale</tspan><tspan x="0" y="10" class="st23 st19">connectomes in onhuman primates</tspan></text>
	</g>
	<g>
		<text transform="matrix(0.8 0 0 1 213.7246 543.4026)" class="st23 st19">Student/Postdoc Special Interest Group (SIG) Party</text>
	</g>
	<g>
		<text transform="matrix(0.8 0 0 1 351.6807 69.7225)"><tspan x="0" y="0" class="st23 st25">Neurodevelopment of the Association Cortices: Normative</tspan><tspan x="0" y="10" class="st23 st25">Patterns &amp; Implications for Psychopathology</tspan></text>
	</g>
	<g>
		<text transform="matrix(0.7927 0 0 1 351.5838 538.9109)"><tspan x="0" y="0" class="st21 st24">Siemens:</tspan><tspan x="22.01" y="0" class="st23 st24"> Precision Estimates of Structure and Function Within the</tspan><tspan x="0" y="8" class="st23 st24">Individual &amp; INS-fMRI: A Method for Mapping Mesoscale </tspan><tspan x="0" y="16" class="st23 st24">Connectomes in Nonhuman Primates</tspan></text>
	</g>
	<g>
		<text transform="matrix(0.8 0 0 1 352.6807 572.0872)" class="st23 st19">Fun with the Sustainability &amp; Environmental Action SIG</text>
	</g>
	<g>
		<text transform="matrix(0.8 0 0 1 492.0596 69.4726)"><tspan x="0" y="0" class="st23 st19">Integrating Mesoscale Human Brain Measurements</tspan><tspan x="0" y="10" class="st23 st19">in the Human Visual Pathways</tspan></text>
	</g>
	<g>
		<text transform="matrix(0.8 0 0 1 492.0596 543.4026)" class="st23 st19">Club Night</text>
	</g>
	<g>
		<text transform="matrix(0.8 0 0 1 631.5225 69.7224)"><tspan x="0" y="0" class="st23 st25">Characterizing Brain Microstructure Using Magnetic Resonance </tspan><tspan x="0" y="10" class="st23 st25">Imaging: Towards In-Vivo Histology</tspan></text>
	</g>
	<g>
		<text transform="matrix(0.8 0 0 1 631.5225 466.6586)" class="st23 st19">Closing Session</text>
	</g>
	<g>
		<text transform="matrix(0.8 0 0 1 74.3926 108.753)"><tspan x="0" y="0" class="st23 st19">Neuroanatomy for Neuroimagers: Bringing a Systems-Level </tspan><tspan x="0" y="10" class="st23 st19">Perspective to Neuroimaging Analyses</tspan></text>
	</g>
	<g>
		<text transform="matrix(0.8 0 0 1 74.3924 136.4363)"><tspan x="0" y="0" class="st23 st19">Current Frontiers in Statistical Inference for </tspan><tspan x="0" y="10" class="st23 st19">Neuroimaging Data</tspan></text>
	</g>
	<g>
		<text transform="matrix(0.8 0 0 1 74.3924 55.2244)" class="st23 st19">Glass Brain Award</text>
	</g>
	<g>
		<text transform="matrix(0.8 0 0 1 213.7248 54.6636)" class="st23 st19">Open Science &amp; Education in Neuroimaging Awards</text>
	</g>
	<g>
		<text transform="matrix(0.8 0 0 1 352.6805 55.1941)" class="st23 st19">Fellows &amp; Early Career Investigator Awards</text>
	</g>
	<g>
		<text transform="matrix(0.8 0 0 1 492.0594 54.6633)" class="st23 st19">Mentor, Diversity &amp; Replication Awards</text>
	</g>
	<g>
		<text transform="matrix(0.8 0 0 1 631.5223 55.1316)" class="st23 st19">Announcement of New OHBM Leadership</text>
	</g>
	<g>
		<text transform="matrix(0.8 0 0 1 74.3924 162.5833)"><tspan x="0" y="0" class="st23 st19">Neuromodulation of Disrupted Brain Networks:</tspan><tspan x="0" y="10" class="st23 st19">Mechanisms, Optimal Targeting, and Individual Treatment</tspan></text>
	</g>
	<g>
		<text transform="matrix(0.8 0 0 1 74.3924 195.5763)" class="st23 st19">All Hands on Deck: Patching the Leaky Academic Pipeline</text>
	</g>
	<g>
		<text transform="matrix(0.8 0 0 1 213.7246 108.7025)"><tspan x="0" y="0" class="st23 st19">Imaging the Brainstem:</tspan><tspan x="0" y="10" class="st23 st19">Approaches, Challenges and Opportunities</tspan></text>
	</g>
	<g>
		<text transform="matrix(0.8 0 0 1 213.7248 141.3858)" class="st23 st19">Learning From High-Dimensional Neuroimaging Data</text>
	</g>
	<g>
		<text transform="matrix(0.8 0 0 1 213.7248 168.5328)" class="st23 st19">Addressing the Social Limitations in Open Science</text>
	</g>
	<g>
		<text transform="matrix(0.8 0 0 1 213.7248 196.5258)" class="st23 st19">PET Imaging of Brain Connectivity: Hype or Future?</text>
	</g>
	<g>
		<text transform="matrix(0.8 0 0 1 352.6806 108.0428)"><tspan x="0" y="0" class="st23 st19">Communications in Brain Networks:</tspan><tspan x="0" y="10" class="st23 st19">Models, Mechanisms and Applications</tspan></text>
	</g>
	<g>
		<text transform="matrix(0.8 0 0 1 352.6808 135.7262)"><tspan x="0" y="0" class="st23 st19">Inovations in Multi-Modal Data Fusion and </tspan><tspan x="0" y="10" class="st23 st19">Data-Driven Discovery in Population Neuroimaging</tspan></text>
	</g>
	<g>
		<text transform="matrix(0.8 0 0 1 352.6808 162.8732)"><tspan x="0" y="0" class="st23 st19">Emerging Research in Infant Neuroimaging:</tspan><tspan x="0" y="10" class="st23 st19">A Fit’ng Overview</tspan></text>
	</g>
	<g>
		<text transform="matrix(0.8 0 0 1 352.6808 189.8661)"><tspan x="0" y="0" class="st23 st19">Spatio-Temporal Brain Dynamics across Consciousness </tspan><tspan x="0" y="10" class="st23 st19">Levels in Clinical and Healthy Populations</tspan></text>
	</g>
	<g>
		<text transform="matrix(0.8 0 0 1 492.0591 108.4245)"><tspan x="0" y="0" class="st23 st19">Mapping Cortical Morphology in the Human and </tspan><tspan x="0" y="10" class="st23 st19">Non-Human Primate Brain and Relations to Function</tspan></text>
	</g>
	<g>
		<text transform="matrix(0.8 0 0 1 492.0599 136.1078)"><tspan x="0" y="0" class="st23 st19">OHBM-DGKN Alliance: International Symposium </tspan><tspan x="0" y="10" class="st23 st19">on Network Reorganization After Stroke</tspan></text>
	</g>
	<g>
		<text transform="matrix(0.8 0 0 1 492.0599 163.2549)"><tspan x="0" y="0" class="st23 st19">Advances in Functional Neuroimaging of </tspan><tspan x="0" y="10" class="st23 st19">Spontaneous Thought</tspan></text>
	</g>
	<g>
		<text transform="matrix(0.8 0 0 1 492.0594 196.2478)" class="st23 st19">Racial Bias in Neuroscience</text>
	</g>
	<g>
		<text transform="matrix(0.8 0 0 1 631.522 108.4243)"><tspan x="0" y="0" class="st23 st19">From Bench to Bed-Side: Quantifying Brain Microstructure </tspan><tspan x="0" y="10" class="st23 st19">Using Multi-Parameter MRI</tspan></text>
	</g>
	<g>
		<text transform="matrix(0.8 0 0 1 631.5228 136.1076)"><tspan x="0" y="0" class="st23 st19">Identifying and Reducing Model Bias </tspan><tspan x="0" y="10" class="st23 st19">in Network Neuroscience</tspan></text>
	</g>
	<g>
		<text transform="matrix(0.8 0 0 1 631.5228 163.2547)"><tspan x="0" y="0" class="st23 st19">Simultaneous MRI-PET Imaging:</tspan><tspan x="0" y="10" class="st23 st19">Recent Developments and Future Directions</tspan></text>
	</g>
	<g>
		<text transform="matrix(0.8 0 0 1 631.5228 189.5636)"><tspan x="0" y="0" class="st23 st19">Stress Sensitivity as a Predictor</tspan><tspan x="0" y="10" class="st23 st19">of Long-Term Vulnerability Versus Stress Resiliance</tspan></text>
	</g>
	<g>
		<text transform="matrix(0.8 0 0 1 74.3926 248.4414)" class="st23 st19">Learning and Memory</text>
	</g>
	<g>
		<text transform="matrix(0.7927 0 0 1 131.3973 257.9404)" class="st21 st24">9-9:30AM Poster Highlights Room 1</text>
	</g>
	<g>
		<text transform="matrix(0.7927 0 0 1 131.376 285.4622)" class="st21 st24">9-9:30AM Poster Highlights Room 2</text>
	</g>
	<g>
		<text transform="matrix(0.7927 0 0 1 131.3406 312.6585)" class="st21 st24">9-9:30AM Poster Highlights Room 3</text>
	</g>
	<g>
		<text transform="matrix(0.7927 0 0 1 130.0314 338.056)" class="st21 st24">9-9:30AM Poster Highlights Room 4</text>
	</g>
	<g>
		<text transform="matrix(0.7927 0 0 1 180.9822 580.2041)" class="st21 st24">Social Lounge</text>
	</g>
	<g>
		<text transform="matrix(0.7927 0 0 1 319.3315 579.8812)" class="st21 st24">Social Lounge</text>
	</g>
	<g>
		<text transform="matrix(0.7927 0 0 1 458.8541 580.4672)" class="st21 st24">Social Lounge</text>
	</g>
	<g>
		<text transform="matrix(0.7927 0 0 1 454.3089 554.9103)" class="st21 st24">Symosium Hall 1</text>
	</g>
	<g>
		<text transform="matrix(0.7927 0 0 1 314.8321 43.192)" class="st21 st24">Symosium Hall 1</text>
	</g>
	<g>
		<text transform="matrix(0.7927 0 0 1 176.7558 79.4724)" class="st23 st19">Leah Krubitzer</text>
	</g>
	<g>
		<text transform="matrix(0.7927 0 0 1 311.6782 79.4726)" class="st23 st19">Anna Wang Roe</text>
	</g>
	<g>
		<text transform="matrix(0.7927 0 0 1 596.1362 79.4726)" class="st23 st19">Dora Hermes</text>
	</g>
	<g>
		<text transform="matrix(0.7927 0 0 1 726.0772 79.7224)" class="st23 st25">Nikolaus Weiskopf</text>
	</g>
	<g>
		<text transform="matrix(0.7927 0 0 1 450.3952 79.7226)" class="st23 st25">Ted Satterthwaite</text>
	</g>
	<g>
		<text transform="matrix(0.7927 0 0 1 602.4155 579.918)" class="st21 st24">Club OHBM</text>
	</g>
	<g>
		<text transform="matrix(0.8 0 0 1 74.3924 278.5977)" class="st23 st19">Software Demonstrations</text>
	</g>
	<g>
		<text transform="matrix(0.8 0 0 1 74.3924 305.7447)" class="st23 st19">Brain Stimulation</text>
	</g>
	<g>
		<text transform="matrix(0.8 0 0 1 74.3924 325.7378)"><tspan x="0" y="0" class="st23 st19">Disorders of the Nervous System: Neurodegenerative </tspan><tspan x="0" y="10" class="st23 st19">/ Late Life</tspan></text>
	</g>
	<g>
		<text transform="matrix(0.8 0 0 1 213.7246 270.1179)"><tspan x="0" y="0" class="st23 st19">Disorders of the Nervous System: Neurodevelopmental </tspan><tspan x="0" y="10" class="st23 st19">/ Early Life</tspan></text>
	</g>
	<g>
		<text transform="matrix(0.8 0 0 1 213.7248 248.817)" class="st23 st19">Higher Cognitive Functions</text>
	</g>
	<g>
		<text transform="matrix(0.7927 0 0 1 269.9503 257.9406)" class="st21 st24">9-9:30AM Poster Highlights Room 1</text>
	</g>
	<g>
		<text transform="matrix(0.7927 0 0 1 269.9289 285.4619)" class="st21 st24">9-9:30AM Poster Highlights Room 2</text>
	</g>
	<g>
		<text transform="matrix(0.7927 0 0 1 269.8935 312.6582)" class="st21 st24">9-9:30AM Poster Highlights Room 3</text>
	</g>
	<g>
		<text transform="matrix(0.7927 0 0 1 268.5843 338.0556)" class="st21 st24">9-9:30AM Poster Highlights Room 4</text>
	</g>
	<g>
		<text transform="matrix(0.7927 0 0 1 409.3106 257.9408)" class="st21 st24">9-9:30AM Poster Highlights Room 1</text>
	</g>
	<g>
		<text transform="matrix(0.7927 0 0 1 409.2893 285.4621)" class="st21 st24">9-9:30AM Poster Highlights Room 2</text>
	</g>
	<g>
		<text transform="matrix(0.7927 0 0 1 409.2538 312.6588)" class="st21 st24">9-9:30AM Poster Highlights Room 3</text>
	</g>
	<g>
		<text transform="matrix(0.7927 0 0 1 407.9447 338.0563)" class="st21 st24">9-9:30AM Poster Highlights Room 4</text>
	</g>
	<g>
		<text transform="matrix(0.8 0 0 1 213.7246 298.1203)"><tspan x="0" y="0" class="st23 st19">Modeling and Analysis: </tspan><tspan x="0" y="10" class="st23 st19">Multivariate Approaches</tspan></text>
	</g>
	<g>
		<text transform="matrix(0.8 0 0 1 213.7246 330.1134)" class="st23 st19">Sleep, Consciousness, Pain</text>
	</g>
	<g>
		<text transform="matrix(0.8 0 0 1 352.6806 247.2164)" class="st23 st19">Social Neuroscience, Emotion and Motivation</text>
	</g>
	<g>
		<text transform="matrix(0.8 0 0 1 352.6808 275.2867)" class="st23 st19">Neuroinformatics and Data Sharing</text>
	</g>
	<g>
		<text transform="matrix(0.8 0 0 1 352.6808 302.3526)" class="st23 st19">Disorders of the Nervous System: Psychiatric</text>
	</g>
	<g>
		<text transform="matrix(0.8 0 0 1 352.6805 329.2552)" class="st23 st19">Neuroanatomy</text>
	</g>
	<g>
		<text transform="matrix(0.7927 0 0 1 546.4088 257.9406)" class="st21 st24">9-9:30AM Poster Highlights Room 1</text>
	</g>
	<g>
		<text transform="matrix(0.7927 0 0 1 546.3874 285.462)" class="st21 st24">9-9:30AM Poster Highlights Room 2</text>
	</g>
	<g>
		<text transform="matrix(0.7927 0 0 1 546.352 312.6582)" class="st21 st24">9-9:30AM Poster Highlights Room 3</text>
	</g>
	<g>
		<text transform="matrix(0.7927 0 0 1 545.0428 338.0557)" class="st21 st24">9-9:30AM Poster Highlights Room 4</text>
	</g>
	<g>
		<text transform="matrix(0.8 0 0 1 492.0595 249.1015)" class="st23 st19">Language</text>
	</g>
	<g>
		<text transform="matrix(0.8 0 0 1 492.0597 277.1718)" class="st23 st19">Modeling and Analysis: Activation</text>
	</g>
	<g>
		<text transform="matrix(0.8 0 0 1 492.0597 303.2377)" class="st23 st19">Lifespan Development</text>
	</g>
	<g>
		<text transform="matrix(0.8 0 0 1 492.0594 330.1403)" class="st23 st19">Genetics</text>
	</g>
	<g>
		<text transform="matrix(0.7927 0 0 1 687.5704 257.9408)" class="st21 st24">9-9:30AM Poster Highlights Room 1</text>
	</g>
	<g>
		<text transform="matrix(0.7927 0 0 1 687.549 285.4621)" class="st21 st24">9-9:30AM Poster Highlights Room 2</text>
	</g>
	<g>
		<text transform="matrix(0.7927 0 0 1 687.5136 312.6588)" class="st21 st24">9-9:30AM Poster Highlights Room 3</text>
	</g>
	<g>
		<text transform="matrix(0.7927 0 0 1 686.2044 338.0554)" class="st21 st24">9-9:30AM Poster Highlights Room 4</text>
	</g>
	<g>
		<g>
			<text transform="matrix(0.8 0 0 1 631.5223 217.3055)"><tspan x="0" y="0" class="st23 st19">How Can Scientists Respond to the Climate Emergency?</tspan><tspan x="0" y="10" class="st23 st19">A Guide From the SEA SIG</tspan></text>
		</g>
	</g>
	<g>
		<text transform="matrix(0.8 0 0 1 631.5229 248.1012)" class="st23 st19">Perception, Attention and Motor Behavior</text>
	</g>
	<g>
		<text transform="matrix(0.8 0 0 1 631.5221 276.1715)" class="st23 st19">Modeling and Analysis: Connectivity</text>
	</g>
	<g>
		<text transform="matrix(0.8 0 0 1 631.5222 302.2373)" class="st23 st19">Physiology, Metabolism and Neurotransmission</text>
	</g>
	<g>
		<text transform="matrix(0.8 0 0 1 631.5228 329.14)" class="st23 st19">Novel Imaging Acquisition Methods</text>
	</g>
	<g>
		<text transform="matrix(0.8 0 0 1 74.3924 352.7636)"><tspan x="0" y="0" class="st23 st19">Transitioning From Academia to Industry: </tspan><tspan x="0" y="10" class="st23 st19">Why, When, How and Where?</tspan></text>
	</g>
	<g>
		<text transform="matrix(0.8 0 0 1 74.3924 406.7547)"><tspan x="0" y="0" class="st23 st19">Neuroimaging Best Practices Beyond Open Science: </tspan><tspan x="0" y="10" class="st23 st19">Ethics, Collaborations and High Quality Research</tspan></text>
	</g>
	<g>
		<text transform="matrix(0.8 0 0 1 74.3924 386.006)" class="st23 st19">Glass Brain Interview</text>
	</g>
	<g>
		<text transform="matrix(0.8 0 0 1 492.0594 411.7547)" class="st23 st19">Kidz Live Review: Portugese</text>
	</g>
	<g>
		<text transform="matrix(0.8 0 0 1 354.0909 357.7635)" class="st23 st19">Kidz Live Review: French</text>
	</g>
	<g>
		<text transform="matrix(0.8 0 0 1 352.8243 386.0065)" class="st23 st19">Kidz Live Review: Italian</text>
	</g>
	<g>
		<text transform="matrix(0.8 0 0 1 492.06 357.7641)" class="st23 st19">Diversity Roundtable</text>
	</g>
	<g>
		<text transform="matrix(0.8 0 0 1 492.0595 386.0061)" class="st23 st19">Aperture and Open Science Roundtable</text>
	</g>
	<g>
		<text transform="matrix(0.8 0 0 1 492.0597 438.5484)" class="st23 st19">Kidz Live Review: Spanish</text>
	</g>
	<g>
		<text transform="matrix(0.8 0 0 1 492.0598 461.6584)"><tspan x="0" y="0" class="st23 st19">The OHBM Conference Model Post-COVID: </tspan><tspan x="0" y="10" class="st23 st19">What Should it Look Like?</tspan></text>
	</g>
	<g>
		<text transform="matrix(0.8 0 0 1 352.6806 433.5488)"><tspan x="0" y="0" class="st23 st19">Getting the Incentives Right: </tspan><tspan x="0" y="10" class="st23 st19">Rethinking How We Define Acadmic Success</tspan></text>
	</g>
	<g>
		<text transform="matrix(0.8 0 0 1 353.623 406.7546)"><tspan x="0" y="0" class="st23 st19">Navigating academic careers: What are our options</tspan><tspan x="0" y="10" class="st23 st19">and how can we reach our goals?</tspan></text>
	</g>
	<g>
		<text transform="matrix(0.8 0 0 1 213.7245 386.0058)" class="st23 st19">Failure Five Ways Roundtable</text>
	</g>
	<g>
		<text transform="matrix(0.8 0 0 1 213.7245 411.7547)" class="st23 st19">OHBM Leadership Open House</text>
	</g>
	<g>
		<text transform="matrix(0.8 0 0 1 213.7247 357.7641)" class="st23 st19">Research Funding Roundtable</text>
	</g>
	<g>
		<text transform="matrix(0.8 0 0 1 74.3924 520.2478)" class="st23 st19">Open Discussions</text>
	</g>
	<g>
		<text transform="matrix(0.8 0 0 1 213.7245 520.2478)" class="st23 st19">Open Discussions</text>
	</g>
	<g>
		<text transform="matrix(0.8 0 0 1 352.6805 520.2479)" class="st23 st19">Open Discussions</text>
	</g>
	<g>
		<text transform="matrix(0.8 0 0 1 492.0594 520.248)" class="st23 st19">Open Discussions</text>
	</g>
	<g>
		<text transform="matrix(1 0 0 1 129.082 493.8048)" class="st21 st24">Let’s Talk: Best Practices in fNIRS!</text>
	</g>
	<g>
		<text transform="matrix(1 0 0 1 258.4008 489.5111)"><tspan x="0" y="0" class="st21 st26">fNIRS - Do I Need Short Channels and </tspan><tspan x="0" y="8" class="st21 st26">What Do I Gain From Adding Physiology?</tspan></text>
	</g>
	<g>
		<text transform="matrix(0.8 0 0 1 74.3926 494.0981)" class="st23 st19">Exhibitors Hour</text>
	</g>
	<g>
		<text transform="matrix(0.8 0 0 1 213.7245 494.0981)" class="st23 st19">Exhibitors Hour</text>
	</g>
	<g>
		<text transform="matrix(0.8 0 0 1 352.6806 494.0987)" class="st23 st19">Exhibitors Hour</text>
	</g>
	<g>
		<text transform="matrix(0.8 0 0 1 492.0599 494.0987)" class="st23 st19">Exhibitors Hour</text>
	</g>
	<g>
		<text transform="matrix(0.7927 0 0 1 63.9392 290.9848)" class="st22 st19">&amp;</text>
	</g>
	<text transform="matrix(1 0 0 1 254.6392 43.192)" class="st21 st24">Sponsored Symposium</text>
	<text transform="matrix(1 0 0 1 427.365 554.9105)" class="st21 st24">Sponsored</text>
	<text transform="matrix(1 0 0 1 428.6475 489.8047)"><tspan x="0" y="0" class="st21 st24">Does Your Scanner Give</tspan><tspan x="0" y="8" class="st21 st24">You Consistent Results?</tspan></text>
	<text transform="matrix(0.8 0 0 1 14.2778 277.3271)" class="st23 st19">Africa/Americas/Europe</text>
</g>
</svg>
