<?xml version="1.0" encoding="utf-8"?>
<!-- Generator: Adobe Illustrator 25.3.0, SVG Export Plug-In . SVG Version: 6.00 Build 0)  -->
<svg version="1.1" xmlns="http://www.w3.org/2000/svg" xmlns:xlink="http://www.w3.org/1999/xlink" x="0px" y="0px"
	 width="841.89px" height="595.28px" viewBox="0 0 841.89 595.28" style="enable-background:new 0 0 841.89 595.28;"
	 xml:space="preserve">
<style type="text/css">
	.st0{opacity:0.5;fill:#72B546;}
	.st1{opacity:0.5;fill:#B0562D;}
	.st2{opacity:0.5;fill:#B59E27;}
	.st3{opacity:0.5;fill:#2D9BB5;}
	.st4{opacity:0.5;fill:#763AB0;}
	.st5{opacity:0.5;fill:#2832B5;}
	.st6{opacity:0.5;fill:#9C2A42;}
	.st7{fill:none;stroke:#000000;stroke-width:0.5;stroke-miterlimit:10;}
	.st8{fill:none;stroke:#000000;stroke-miterlimit:10;}
	.st9{opacity:0.6;}
	.st10{fill:none;stroke:#000000;stroke-width:0.25;stroke-miterlimit:10;}
	.st11{fill:none;stroke:#000000;stroke-width:0.25;stroke-miterlimit:10;stroke-dasharray:1.9987,1.9987;}
	.st12{fill:none;}
	.st13{fill:none;stroke:#000000;stroke-width:0.25;stroke-miterlimit:10;stroke-dasharray:2.0051,2.0051;}
	.st14{fill:none;stroke:#000000;stroke-width:0.25;stroke-miterlimit:10;stroke-dasharray:0.9933,4.9663;}
	.st15{fill:#FFFFFF;}
	.st16{opacity:0.5;fill:#7E79C2;}
	.st17{opacity:0.5;fill:#6A4A49;}
	.st18{font-family:'MyriadPro-Cond';}
	.st19{font-size:10px;}
	.st20{font-family:'MyriadPro-LightCond';}
	.st21{font-family:'MyriadPro-LightCondIt';}
	.st22{font-size:9px;}
	.st23{font-family:'MyriadPro-BoldCond';}
	.st24{font-family:'MyriadPro-SemiboldCond';}
</style>
<g id="background">
	<rect x="70.32" y="33.23" class="st0" width="695.56" height="270.52"/>
</g>
<g id="lines">
	<line class="st8" x1="34.34" y1="33.16" x2="841.89" y2="33.16"/>
	<g>
		<g class="st9">
			<line class="st10" x1="70.32" y1="60.22" x2="71.32" y2="60.22"/>
			<line class="st11" x1="73.32" y1="60.22" x2="763.88" y2="60.22"/>
			<line class="st10" x1="764.88" y1="60.22" x2="765.88" y2="60.22"/>
		</g>
	</g>
	<g>
		<g class="st9">
			<line class="st10" x1="70.32" y1="87.22" x2="71.32" y2="87.22"/>
			<line class="st11" x1="73.32" y1="87.22" x2="763.88" y2="87.22"/>
			<line class="st10" x1="764.88" y1="87.22" x2="765.88" y2="87.22"/>
		</g>
	</g>
	<g>
		<g class="st9">
			<line class="st10" x1="70.32" y1="114.21" x2="71.32" y2="114.21"/>
			<line class="st11" x1="73.32" y1="114.21" x2="763.88" y2="114.21"/>
			<line class="st10" x1="764.88" y1="114.21" x2="765.88" y2="114.21"/>
		</g>
	</g>
	<g>
		<g class="st9">
			<line class="st10" x1="70.32" y1="141.49" x2="71.32" y2="141.49"/>
			<line class="st11" x1="73.32" y1="141.49" x2="763.88" y2="141.49"/>
			<line class="st10" x1="764.88" y1="141.49" x2="765.88" y2="141.49"/>
		</g>
	</g>
	<g>
		<g class="st9">
			<line class="st10" x1="70.32" y1="195.33" x2="71.32" y2="195.33"/>
			<line class="st11" x1="73.32" y1="195.33" x2="763.88" y2="195.33"/>
			<line class="st10" x1="764.88" y1="195.33" x2="765.88" y2="195.33"/>
		</g>
	</g>
	<g>
		<g class="st9">
			<line class="st10" x1="70.32" y1="222.33" x2="71.32" y2="222.33"/>
			<line class="st11" x1="73.32" y1="222.33" x2="763.88" y2="222.33"/>
			<line class="st10" x1="764.88" y1="222.33" x2="765.88" y2="222.33"/>
		</g>
	</g>
	<g>
		<g class="st9">
			<line class="st10" x1="70.32" y1="249.61" x2="71.32" y2="249.61"/>
			<line class="st11" x1="73.32" y1="249.61" x2="763.88" y2="249.61"/>
			<line class="st10" x1="764.88" y1="249.61" x2="765.88" y2="249.61"/>
		</g>
	</g>
	<g>
		<g class="st9">
			<line class="st10" x1="70.34" y1="168.49" x2="71.34" y2="168.49"/>
			<line class="st11" x1="73.33" y1="168.49" x2="763.9" y2="168.49"/>
			<line class="st10" x1="764.89" y1="168.49" x2="765.89" y2="168.49"/>
		</g>
	</g>
	<g>
		<g class="st9">
			<line class="st10" x1="70.34" y1="276.46" x2="71.34" y2="276.46"/>
			<line class="st11" x1="73.33" y1="276.46" x2="763.9" y2="276.46"/>
			<line class="st10" x1="764.89" y1="276.46" x2="765.89" y2="276.46"/>
		</g>
	</g>
	<line class="st8" x1="70.34" y1="168.14" x2="765.71" y2="168.14"/>
	<line class="st8" x1="33.76" y1="303.75" x2="843.47" y2="303.7"/>
	<line class="st7" x1="211.07" y1="0" x2="211.07" y2="303.75"/>
	<line class="st7" x1="70.32" y1="0" x2="70.32" y2="303.75"/>
	<line class="st7" x1="350.18" y1="0" x2="350.18" y2="303.75"/>
	<line class="st7" x1="489.29" y1="0" x2="489.29" y2="303.75"/>
	<line class="st7" x1="628.4" y1="0" x2="628.4" y2="303.75"/>
	<line class="st7" x1="766.06" y1="0" x2="765.7" y2="303.25"/>
</g>
<g id="information_text">
	<g>
		<g>
			<g>
				<text transform="matrix(0.7927 0 0 1 770.0879 26.4029)" class="st18 st19">Location</text>
			</g>
		</g>
	</g>
	<g>
		<g>
			<text transform="matrix(0.7927 0 0 1 8 36.3084)" class="st18 st19">T1XM</text>
		</g>
		<g>
			<text transform="matrix(0.7927 0 0 1 7.9998 306.6379)" class="st18 st19">T2XM</text>
		</g>
	</g>
	<g>
		<text transform="matrix(0.7927 0 0 1 770.0874 137.1428)" class="st20 st19">Posterhall</text>
	</g>
	<g>
		<text transform="matrix(0.7927 0 0 1 12.8862 157.508)"><tspan x="0" y="0" class="st21 st22">Poster presenters are invited</tspan><tspan x="-3.55" y="9" class="st21 st22">to be available for discussions</tspan><tspan x="-5.72" y="18" class="st21 st22">throughout the 2-hour session</tspan></text>
	</g>
	<g>
		<text transform="matrix(0.7927 0 0 1 770.2021 177.6359)"><tspan x="0" y="0" class="st21 st22">Poster Highlights sessions are</tspan><tspan x="0" y="9" class="st21 st22">scheduled for first 30 min of </tspan><tspan x="0" y="18" class="st21 st22">each hour</tspan></text>
	</g>
	<g>
		<text transform="matrix(0.7927 0 0 1 34.926 114.5047)" class="st21 st22">(T3XM)</text>
	</g>
	<g>
		<text transform="matrix(0.7927 0 0 1 48.0615 60.017)" class="st23 st19">Posters</text>
	</g>
	<g>
		<text transform="matrix(0.7927 0 0 1 20.5874 103.8784)" class="st23 st19">Poster Highlights</text>
	</g>
	<g>
		<text transform="matrix(0.7927 0 0 1 34.0191 242.9783)" class="st21 st22">(T4XM)</text>
	</g>
	<g>
		<text transform="matrix(0.7927 0 0 1 20.5873 232.352)" class="st23 st19">Poster Highlights</text>
	</g>
	<g>
		<g>
			<g>
				<text transform="matrix(0.7927 0 0 1 770.0875 314.1142)" class="st21 st19">version 1 ­— June 1, 2021</text>
			</g>
		</g>
	</g>
	<g>
		<text transform="matrix(0.7927 0 0 1 124.6964 26.4831)" class="st18 st19">TZD1</text>
	</g>
	<g>
		<text transform="matrix(0.7927 0 0 1 7.3217 14.4831)"><tspan x="0" y="0" class="st24 st19">TZXM: </tspan><tspan x="0" y="9" class="st24 st19">TZTITLE</tspan></text>
	</g>
	<g>
		<text transform="matrix(0.7927 0 0 1 263.1105 26.4831)" class="st18 st19">TZD2</text>
	</g>
	<g>
		<text transform="matrix(0.7927 0 0 1 399.8263 26.4831)" class="st18 st19">TZD3</text>
	</g>
	<g>
		<text transform="matrix(0.7927 0 0 1 539.8615 26.4831)" class="st18 st19">TZD4</text>
	</g>
	<g>
		<text transform="matrix(0.7927 0 0 1 679.8322 26.4831)" class="st18 st19">TZD5</text>
	</g>
</g>
<g id="text">
	<g>
		<text transform="matrix(0.8 0 0 1 491.0593 184.7786)" class="st20 st19">Learning and Memory</text>
	</g>
	<g>
		<text transform="matrix(0.7927 0 0 1 270.2426 57.2202)" class="st21 st22">T3XM Poster Highlights Room 1</text>
	</g>
	<g>
		<text transform="matrix(0.7927 0 0 1 270.2427 84.7414)" class="st21 st22">T3XM Poster Highlights Room 2</text>
	</g>
	<g>
		<text transform="matrix(0.7927 0 0 1 270.2425 111.9376)" class="st21 st22">T3XM Poster Highlights Room 3</text>
	</g>
	<g>
		<text transform="matrix(0.7927 0 0 1 270.2429 139.3352)" class="st21 st22">T3XM Poster Highlights Room 4</text>
	</g>
	<g>
		<text transform="matrix(0.8 0 0 1 491.06 239.3724)" class="st20 st19">Software Demonstrations</text>
	</g>
	<g>
		<text transform="matrix(0.8 0 0 1 491.0592 293.6701)" class="st20 st19">Brain Stimulation</text>
	</g>
	<g>
		<text transform="matrix(0.8 0 0 1 490.0595 260.5259)"><tspan x="0" y="0" class="st20 st19">Disorders of the Nervous System: Neurodegenerative </tspan><tspan x="0" y="10" class="st20 st19">/ Late Life</tspan></text>
	</g>
	<g>
		<text transform="matrix(0.8 0 0 1 491.0591 50.4591)" class="st20 st19">Higher Cognitive Functions</text>
	</g>
	<g>
		<text transform="matrix(0.8 0 0 1 491.0594 206.7207)"><tspan x="0" y="0" class="st20 st19">Modeling and Analysis: </tspan><tspan x="0" y="10" class="st20 st19">Multivariate Approaches</tspan></text>
	</g>
	<g>
		<text transform="matrix(0.8 0 0 1 491.0591 77.5133)" class="st20 st19">Sleep, Consciousness, Pain</text>
	</g>
	<g>
		<text transform="matrix(0.8 0 0 1 213.7244 49.1988)" class="st20 st19">Social Neuroscience, Emotion and Motivation</text>
	</g>
	<g>
		<text transform="matrix(0.8 0 0 1 213.7248 103.4044)" class="st20 st19">Neuroinformatics and Data Sharing</text>
	</g>
	<g>
		<text transform="matrix(0.8 0 0 1 213.7245 155.3985)" class="st20 st19">Disorders of the Nervous System: Psychiatric</text>
	</g>
	<g>
		<text transform="matrix(0.8 0 0 1 213.7245 239.3725)" class="st20 st19">Neuroanatomy</text>
	</g>
	<g>
		<text transform="matrix(0.7927 0 0 1 548.8339 57.2205)" class="st21 st22">T3XM Poster Highlights Room 1</text>
	</g>
	<g>
		<text transform="matrix(0.7927 0 0 1 548.1904 84.7419)" class="st21 st22">T3XM Poster Highlights Room 2</text>
	</g>
	<g>
		<text transform="matrix(0.7927 0 0 1 548.8337 111.9381)" class="st21 st22">T3XM Poster Highlights Room 3</text>
	</g>
	<g>
		<text transform="matrix(0.7927 0 0 1 548.8331 139.3355)" class="st21 st22">T3XM Poster Highlights Room 4</text>
	</g>
	<g>
		<text transform="matrix(0.8 0 0 1 213.7247 75.5424)" class="st20 st19">Language</text>
	</g>
	<g>
		<text transform="matrix(0.8 0 0 1 213.7248 210.7845)" class="st20 st19">Modeling and Analysis: Activation</text>
	</g>
	<g>
		<text transform="matrix(0.8 0 0 1 213.7246 266.3255)" class="st20 st19">Lifespan Development</text>
	</g>
	<g>
		<text transform="matrix(0.8 0 0 1 213.7247 294.4409)" class="st20 st19">Genetics</text>
	</g>
	<g>
		<text transform="matrix(0.8 0 0 1 213.7244 184.7791)" class="st20 st19">Perception, Attention and Motor Behavior</text>
	</g>
	<g>
		<text transform="matrix(0.8 0 0 1 491.0594 103.4051)" class="st20 st19">Modeling and Analysis: Connectivity</text>
	</g>
	<g>
		<text transform="matrix(0.8 0 0 1 213.7244 129.3132)" class="st20 st19">Physiology, Metabolism and Neurotransmission</text>
	</g>
	<g>
		<text transform="matrix(0.8 0 0 1 491.0596 157.5085)" class="st20 st19">Novel Imaging Acquisition Methods</text>
	</g>
	<g>
		<text transform="matrix(0.7927 0 0 1 63.939 84.1142)" class="st23 st19">&amp;</text>
	</g>
	<g>
		<text transform="matrix(0.7927 0 0 1 270.1785 165.4855)" class="st21 st22">T3XM Poster Highlights Room 5</text>
	</g>
	<g>
		<text transform="matrix(0.7927 0 0 1 270.2427 194.0068)" class="st21 st22">T4XM Poster Highlights Room 1</text>
	</g>
	<g>
		<text transform="matrix(0.7927 0 0 1 270.2429 221.203)" class="st21 st22">T4XM Poster Highlights Room 2</text>
	</g>
	<g>
		<text transform="matrix(0.7927 0 0 1 270.2428 247.6005)" class="st21 st22">T4XM Poster Highlights Room 3</text>
	</g>
	<g>
		<text transform="matrix(0.7927 0 0 1 270.2425 274.5534)" class="st21 st22">T4XM Poster Highlights Room 4</text>
	</g>
	<g>
		<text transform="matrix(0.7927 0 0 1 270.1789 301.8978)" class="st21 st22">T4XM Poster Highlights Room 5</text>
	</g>
	<g>
		<text transform="matrix(0.7927 0 0 1 548.8357 194.0061)" class="st21 st22">T4XM Poster Highlights Room 1</text>
	</g>
	<g>
		<text transform="matrix(0.7927 0 0 1 548.8354 221.2022)" class="st21 st22">T4XM Poster Highlights Room 2</text>
	</g>
	<g>
		<text transform="matrix(0.7927 0 0 1 548.8358 247.5998)" class="st21 st22">T4XM Poster Highlights Room 3</text>
	</g>
	<g>
		<text transform="matrix(0.7927 0 0 1 548.8356 274.5527)" class="st21 st22">T4XM Poster Highlights Room 4</text>
	</g>
	<g>
		<text transform="matrix(0.7927 0 0 1 548.7715 301.898)" class="st21 st22">T4XM Poster Highlights Room 5</text>
	</g>
	<g>
		<text transform="matrix(0.7927 0 0 1 548.7718 165.4859)" class="st21 st22">T3XM Poster Highlights Room 5</text>
	</g>
	<g>
		<text transform="matrix(0.8 0 0 1 491.0592 124.5131)"><tspan x="0" y="0" class="st20 st19">Disorders of the Nervous System: Neurodevelopmental </tspan><tspan x="0" y="10" class="st20 st19">/ Early Life</tspan></text>
	</g>
	<text transform="matrix(0.8 0 0 1 3.5422 70.5176)" class="st20 st19">Africa/Asia/Australia/Europe</text>
</g>
</svg>
