<?xml version="1.0" encoding="utf-8"?>
<!-- Generator: Adobe Illustrator 25.3.0, SVG Export Plug-In . SVG Version: 6.00 Build 0)  -->
<svg version="1.1" id="Layer_1" xmlns="http://www.w3.org/2000/svg" xmlns:xlink="http://www.w3.org/1999/xlink" x="0px" y="0px"
	 width="841.89px" height="595.28px" viewBox="0 0 841.89 595.28" style="enable-background:new 0 0 841.89 595.28;"
	 xml:space="preserve">
<style type="text/css">
	.st0{opacity:0.5;fill:#B0562D;enable-background:new    ;}
	.st1{opacity:0.5;fill:#B59E27;enable-background:new    ;}
	.st2{opacity:0.5;fill:#72B546;enable-background:new    ;}
	.st3{opacity:0.5;fill:#2D9BB5;enable-background:new    ;}
	.st4{opacity:0.5;fill:#763AB0;enable-background:new    ;}
	.st5{opacity:0.5;fill:#2832B5;enable-background:new    ;}
	.st6{opacity:0.5;fill:#9C2A42;enable-background:new    ;}
	.st7{fill:none;stroke:#000000;stroke-width:0.5;stroke-miterlimit:10;}
	.st8{fill:none;stroke:#000000;stroke-miterlimit:10;}
	.st9{opacity:0.6;}
	.st10{fill:none;stroke:#000000;stroke-width:0.25;stroke-miterlimit:10;}
	.st11{fill:none;stroke:#000000;stroke-width:0.25;stroke-miterlimit:10;stroke-dasharray:2.0051,2.0051;}
	.st12{fill:none;stroke:#000000;stroke-width:0.25;stroke-miterlimit:10;stroke-dasharray:1.9987,1.9987;}
	.st13{fill:none;stroke:#000000;stroke-width:0.25;stroke-miterlimit:10;stroke-dasharray:0.9933,4.9663;}
	.st14{fill:#FFFFFF;}
	.st15{font-family:'MyriadPro-Cond';}
	.st16{font-size:10px;}
	.st17{font-family:'MyriadPro-SemiboldCond';}
	.st18{font-family:'MyriadPro-LightCondIt';}
	.st19{enable-background:new    ;}
	.st20{font-family:'MyriadPro-BoldCond';}
	.st21{font-family:'MyriadPro-LightCond';}
	.st22{font-size:9px;}
	.st23{font-size:9.5px;}
	.st24{font-size:8px;}
</style>
<g id="background">
	<rect x="71.6" y="57.14" class="st0" width="695.91" height="29.37"/>
	<rect x="71.6" y="98.13" class="st1" width="695.91" height="134.48"/>
	<rect x="71.6" y="233.1" class="st2" width="695.56" height="107.68"/>
	<rect x="71.6" y="340.78" class="st3" width="695.56" height="189.24"/>
	<rect x="72.19" y="529.81" class="st4" width="277.98" height="53.79"/>
	<rect x="488.73" y="529.81" class="st4" width="139.67" height="53.79"/>
	<rect x="350.2" y="556.7" class="st4" width="138.53" height="27.3"/>
	<rect x="350.18" y="529.81" class="st5" width="138.55" height="26.9"/>
	<rect x="210.39" y="23.16" class="st5" width="139.81" height="22.49"/>
	<rect x="71.6" y="45.65" class="st6" width="695.91" height="11.49"/>
</g>
<g id="lines">
	<line class="st7" x1="767.51" y1="0" x2="767.16" y2="530.02"/>
	<line class="st8" x1="34.34" y1="23.16" x2="841.89" y2="23.16"/>
	<line class="st8" x1="34.34" y1="45.65" x2="841.53" y2="45.65"/>
	<line class="st7" x1="34.34" y1="57.14" x2="767.51" y2="57.14"/>
	<line class="st8" x1="34.34" y1="98.13" x2="841.53" y2="98.13"/>
	<line class="st8" x1="34.34" y1="85.64" x2="841.53" y2="85.64"/>
	<g>
		<g class="st9">
			<line class="st10" x1="71.6" y1="125.12" x2="72.6" y2="125.12"/>
			<line class="st11" x1="74.6" y1="125.12" x2="839.53" y2="125.12"/>
			<line class="st10" x1="840.53" y1="125.12" x2="841.53" y2="125.12"/>
		</g>
	</g>
	<g>
		<g class="st9">
			<line class="st10" x1="71.6" y1="152.12" x2="72.6" y2="152.12"/>
			<line class="st11" x1="74.6" y1="152.12" x2="839.53" y2="152.12"/>
			<line class="st10" x1="840.53" y1="152.12" x2="841.53" y2="152.12"/>
		</g>
	</g>
	<g>
		<g class="st9">
			<line class="st10" x1="71.6" y1="179.11" x2="72.6" y2="179.11"/>
			<line class="st11" x1="74.6" y1="179.11" x2="839.53" y2="179.11"/>
			<line class="st10" x1="840.53" y1="179.11" x2="841.53" y2="179.11"/>
		</g>
	</g>
	<g>
		<g class="st9">
			<line class="st10" x1="71.6" y1="206.11" x2="72.6" y2="206.11"/>
			<line class="st11" x1="74.6" y1="206.11" x2="839.53" y2="206.11"/>
			<line class="st10" x1="840.53" y1="206.11" x2="841.53" y2="206.11"/>
		</g>
	</g>
	<g>
		<g class="st9">
			<line class="st10" x1="71.6" y1="260.09" x2="72.6" y2="260.09"/>
			<line class="st12" x1="74.6" y1="260.09" x2="765.16" y2="260.09"/>
			<line class="st10" x1="766.16" y1="260.09" x2="767.16" y2="260.09"/>
		</g>
	</g>
	<g>
		<g class="st9">
			<line class="st10" x1="71.6" y1="287.09" x2="72.6" y2="287.09"/>
			<line class="st12" x1="74.6" y1="287.09" x2="765.16" y2="287.09"/>
			<line class="st10" x1="766.16" y1="287.09" x2="767.16" y2="287.09"/>
		</g>
	</g>
	<g>
		<g class="st9">
			<line class="st10" x1="71.6" y1="314.08" x2="72.6" y2="314.08"/>
			<line class="st12" x1="74.6" y1="314.08" x2="765.16" y2="314.08"/>
			<line class="st10" x1="766.16" y1="314.08" x2="767.16" y2="314.08"/>
		</g>
	</g>
	<g>
		<g class="st9">
			<line class="st10" x1="71.6" y1="395.06" x2="72.6" y2="395.06"/>
			<line class="st11" x1="74.6" y1="395.06" x2="839.53" y2="395.06"/>
			<line class="st10" x1="840.53" y1="395.06" x2="841.53" y2="395.06"/>
		</g>
	</g>
	<g>
		<g class="st9">
			<line class="st10" x1="71.6" y1="368.07" x2="72.6" y2="368.07"/>
			<line class="st11" x1="74.6" y1="368.07" x2="839.53" y2="368.07"/>
			<line class="st10" x1="840.53" y1="368.07" x2="841.53" y2="368.07"/>
		</g>
	</g>
	<g>
		<g class="st9">
			<line class="st10" x1="71.6" y1="422.05" x2="72.6" y2="422.05"/>
			<line class="st11" x1="74.6" y1="422.05" x2="839.53" y2="422.05"/>
			<line class="st10" x1="840.53" y1="422.05" x2="841.53" y2="422.05"/>
		</g>
	</g>
	<g>
		<g class="st9">
			<line class="st10" x1="71.6" y1="449.04" x2="72.6" y2="449.04"/>
			<line class="st11" x1="74.6" y1="449.04" x2="839.53" y2="449.04"/>
			<line class="st10" x1="840.53" y1="449.04" x2="841.53" y2="449.04"/>
		</g>
	</g>
	<g>
		<g class="st9">
			<line class="st10" x1="71.6" y1="476.04" x2="72.6" y2="476.04"/>
			<line class="st11" x1="74.6" y1="476.04" x2="839.53" y2="476.04"/>
			<line class="st10" x1="840.53" y1="476.04" x2="841.53" y2="476.04"/>
		</g>
	</g>
	<g>
		<g class="st9">
			<line class="st10" x1="71.6" y1="503.03" x2="72.6" y2="503.03"/>
			<line class="st11" x1="74.6" y1="503.03" x2="839.53" y2="503.03"/>
			<line class="st10" x1="840.53" y1="503.03" x2="841.53" y2="503.03"/>
		</g>
	</g>
	<g>
		<g class="st9">
			<line class="st10" x1="71.6" y1="530.02" x2="72.6" y2="530.02"/>
			<line class="st11" x1="74.6" y1="530.02" x2="839.53" y2="530.02"/>
			<line class="st10" x1="840.53" y1="530.02" x2="841.53" y2="530.02"/>
		</g>
	</g>
	<line class="st8" x1="34.34" y1="233.1" x2="841.53" y2="233.1"/>
	<line class="st8" x1="35.04" y1="341.07" x2="841.53" y2="341.07"/>
	<line class="st8" x1="34.34" y1="530.02" x2="841.53" y2="530.02"/>
	<g>
		<g>
			<line class="st10" x1="34.34" y1="556.86" x2="34.84" y2="556.86"/>
			<line class="st13" x1="39.8" y1="556.86" x2="347.22" y2="556.86"/>
			<line class="st10" x1="349.7" y1="556.86" x2="350.2" y2="556.86"/>
		</g>
	</g>
	<line class="st8" x1="350.2" y1="557.01" x2="488.73" y2="557.01"/>
	<line class="st8" x1="34.34" y1="584" x2="628.82" y2="583.6"/>
	<line class="st7" x1="71.95" y1="0" x2="71.95" y2="583.6"/>
	<line class="st7" x1="211.07" y1="0" x2="211.07" y2="583.6"/>
	<line class="st7" x1="350.18" y1="0" x2="350.18" y2="583.6"/>
	<line class="st7" x1="489.29" y1="0" x2="489.29" y2="583.6"/>
	<line class="st7" x1="628.4" y1="0" x2="628.4" y2="583.6"/>
	<rect x="48.12" y="550.59" class="st14" width="20.41" height="12.56"/>
</g>
<g id="information_text">
	<g>
		<g>
			<g>
				<text transform="matrix(0.7927 0 0 1 124.7246 16.4025)" class="st15 st16">Monday, June 21</text>
			</g>
			<g>
				<text transform="matrix(0.7927 0 0 1 7.3496 16.4025)" class="st17 st16">CST: Night Track</text>
			</g>
			<g>
				<text transform="matrix(0.7927 0 0 1 770.0879 580.7551)" class="st18 st16">version 1 ­— June 1, 2021</text>
			</g>
			<g>
				<text transform="matrix(0.7927 0 0 1 263.1387 16.4025)" class="st15 st16">Tuesday, June 22</text>
			</g>
			<g>
				<text transform="matrix(0.7927 0 0 1 397.8545 16.4025)" class="st15 st16">Wednesday, June 23</text>
			</g>
			<g>
				<text transform="matrix(0.7927 0 0 1 539.8896 16.4025)" class="st15 st16">Thursday, June 24</text>
			</g>
			<g>
				<text transform="matrix(0.7927 0 0 1 679.8604 16.4025)" class="st15 st16">Friday, June 25</text>
			</g>
			<g>
				<text transform="matrix(0.7927 0 0 1 770.0879 16.4025)" class="st15 st16">Location</text>
			</g>
		</g>
	</g>
	<g>
		<g>
			<text transform="matrix(0.7927 0 0 1 8 28.3083)" class="st15 st16">9 PM</text>
		</g>
		<g>
			<text transform="matrix(0.7927 0 0 1 8 47.739)" class="st15 st16">10 PM</text>
		</g>
		<g>
			<text transform="matrix(0.7927 0 0 1 8 59.9108)" class="st15 st16">10:10 PM</text>
		</g>
		<g>
			<text transform="matrix(0.7927 0 0 1 8 87.8669)" class="st15 st16">11 PM</text>
		</g>
		<g>
			<text transform="matrix(0.7927 0 0 1 8 100.485)" class="st15 st16">11:10 PM</text>
		</g>
		<g>
			<text transform="matrix(0.7927 0 0 1 8 235.5173)" class="st19"><tspan x="0" y="0" class="st15 st16">12 AM </tspan><tspan x="0" y="8" class="st15 st16">(next day)</tspan></text>
		</g>
		<g>
			<text transform="matrix(0.7927 0 0 1 8 344.9211)" class="st19"><tspan x="0" y="0" class="st15 st16">1 AM </tspan><tspan x="0" y="8" class="st15 st16">(next day)</tspan></text>
		</g>
		<g>
			<text transform="matrix(0.7927 0 0 1 8 532.5266)" class="st19"><tspan x="0" y="0" class="st15 st16">2 AM </tspan><tspan x="0" y="8" class="st15 st16">(next day)</tspan></text>
		</g>
		<g>
			<text transform="matrix(0.7927 0 0 1 8 560.674)" class="st19"><tspan x="0" y="0" class="st15 st16">3 AM </tspan><tspan x="0" y="8" class="st15 st16">(next day)</tspan></text>
		</g>
		<g>
			<text transform="matrix(0.7927 0 0 1 8 583.758)" class="st19"><tspan x="0" y="0" class="st15 st16">4 AM </tspan><tspan x="0" y="8" class="st15 st16">(next day)</tspan></text>
		</g>
	</g>
	<g>
		<text transform="matrix(0.7927 0 0 1 52.0645 95.7048)" class="st20 st16">Break</text>
	</g>
	<g>
		<text transform="matrix(0.7927 0 0 1 770.0879 117.402)" class="st21 st16">Symposium Hall 1</text>
	</g>
	<g>
		<text transform="matrix(0.7927 0 0 1 770.0879 143.0964)" class="st21 st16">Symposium Hall 2</text>
	</g>
	<g>
		<text transform="matrix(0.7927 0 0 1 770.0879 169.8044)" class="st21 st16">Symposium Hall 3</text>
	</g>
	<g>
		<text transform="matrix(0.7927 0 0 1 770.0879 195.9772)" class="st21 st16">Symposium Hall 4</text>
	</g>
	<g>
		<text transform="matrix(0.7927 0 0 1 770.0879 222.2756)" class="st21 st16">Main Auditorium</text>
	</g>
	<g>
		<text transform="matrix(0.7927 0 0 1 770.0879 359.0739)" class="st21 st16">Symposium Hall 1</text>
	</g>
	<g>
		<text transform="matrix(0.7927 0 0 1 770.0879 385.3517)" class="st21 st16">Symposium Hall 2</text>
	</g>
	<g>
		<text transform="matrix(0.7927 0 0 1 770.0879 412.6423)" class="st21 st16">Symposium Hall 3</text>
	</g>
	<g>
		<text transform="matrix(0.7927 0 0 1 770.0879 438.9289)" class="st21 st16">Symposium Hall 4</text>
	</g>
	<g>
		<text transform="matrix(0.7927 0 0 1 770.0879 466.1691)" class="st21 st16">Main Auditorium</text>
	</g>
	<g>
		<text transform="matrix(0.7927 0 0 1 770.0879 71.3928)" class="st21 st16">Main Auditorium</text>
	</g>
	<g>
		<text transform="matrix(0.7927 0 0 1 770.0879 493.5891)" class="st21 st16">Exhibitors Hall</text>
	</g>
	<g>
		<text transform="matrix(0.7927 0 0 1 770.0879 520.8381)" class="st21 st16">Open Discussion Tables</text>
	</g>
	<g>
		<text transform="matrix(0.7927 0 0 1 770.0879 277.84)" class="st21 st16">Posterhall</text>
	</g>
	<g>
		<text transform="matrix(0.7927 0 0 1 770.1738 291.3239)" class="st18 st22">All posters are located </text>
		<text transform="matrix(0.7927 0 0 1 770.1738 300.3239)" class="st18 st22">in the Posterhall</text>
	</g>
	<g>
		<text transform="matrix(0.7927 0 0 1 770.2881 312.3332)" class="st18 st22">Poster Highlights sessions are</text>
		<text transform="matrix(0.7927 0 0 1 770.2881 321.3332)" class="st18 st22">scheduled for first 30 min of </text>
		<text transform="matrix(0.7927 0 0 1 770.2881 330.3332)" class="st18 st22">poster session</text>
	</g>
	<g>
		<text transform="matrix(0.7927 0 0 1 36.2021 315.3752)" class="st18 st22">(12-12:30AM)</text>
	</g>
	<g>
		<text transform="matrix(0.7927 0 0 1 13.4824 169.9372)" class="st18 st22">Live summary presentations</text>
		<text transform="matrix(0.7927 0 0 1 35.4639 181.9372)" class="st18 st22">followed by Q&amp;A</text>
	</g>
	<g>
		<text transform="matrix(0.7927 0 0 1 42.8057 75.798)" class="st20 st16">Keynotes</text>
	</g>
	<g>
		<text transform="matrix(0.7927 0 0 1 41.9341 155.1926)" class="st20 st16">Symposia</text>
	</g>
	<g>
		<text transform="matrix(0.7927 0 0 1 48.0615 266.8879)" class="st20 st16">Posters</text>
	</g>
	<g>
		<text transform="matrix(0.7927 0 0 1 20.5879 304.7487)" class="st20 st16">Poster Highlights</text>
	</g>
	<g>
		<text transform="matrix(0.7927 0 0 1 49.5044 559.5939)" class="st20 st16">Socials</text>
	</g>
	<g>
		<text transform="matrix(0.7927 0 0 1 33.2383 437.9621)" class="st20 st16">Roundtables</text>
	</g>
	<g>
		<text transform="matrix(0.7927 0 0 1 48.061 55.2243)" class="st20 st16">Awards</text>
	</g>
</g>
<g id="text">
	<g>
		<text transform="matrix(0.8 0 0 1 74.3926 69.4724)" class="st21 st16">Combinatorial Creatures: Cortical Plasticity </text>
		<text transform="matrix(0.8 0 0 1 74.3926 79.4724)" class="st21 st16">Within  and Across Lifetimes</text>
	</g>
	<g>
		<text transform="matrix(0.8 0 0 1 74.3926 543.4025)" class="st21 st16">Welcome reception</text>
	</g>
	<g>
		<text transform="matrix(1 0 0 1 213.7246 32.9421)" class="st18 st22">Philips: </text>
		<text transform="matrix(0.7927 0 0 1 232.7773 32.9421)" class="st21 st16">Diagnostic Confidence in Neuro with Speed </text>
		<text transform="matrix(0.7927 0 0 1 213.7246 42.9421)" class="st21 st16">and Precision</text>
	</g>
	<g>
		<text transform="matrix(0.8 0 0 1 213.7246 69.4724)" class="st21 st16">INS-fMRI: a method for mapping mesoscale</text>
		<text transform="matrix(0.8 0 0 1 213.7246 79.4724)" class="st21 st16">connectomes in onhuman primates</text>
	</g>
	<g>
		<text transform="matrix(0.8 0 0 1 213.7246 543.4025)" class="st21 st16">Student/Postdoc Special Interest Group (SIG) Party</text>
	</g>
	<g>
		<text transform="matrix(0.8 0 0 1 351.6807 69.7224)" class="st21 st23">Neurodevelopment of the Association Cortices: Normative</text>
		<text transform="matrix(0.8 0 0 1 351.6807 79.7224)" class="st21 st23">Patterns &amp; Implications for Psychopathology</text>
	</g>
	<g>
		<text transform="matrix(0.7927 0 0 1 351.584 538.9113)" class="st18 st22">Siemens:</text>
		<text transform="matrix(0.7927 0 0 1 369.0312 538.9113)" class="st21 st22"> Precision Estimates of Structure and Function Within the</text>
		<text transform="matrix(0.7927 0 0 1 351.584 546.9113)" class="st21 st22">Individual &amp; INS-fMRI: A Method for Mapping Mesoscale </text>
		<text transform="matrix(0.7927 0 0 1 351.584 554.9113)" class="st21 st22">Connectomes in Nonhuman Primates</text>
	</g>
	<g>
		<text transform="matrix(0.8 0 0 1 352.6807 572.0871)" class="st21 st16">Fun with the Sustainability &amp; Environmental Action SIG</text>
	</g>
	<g>
		<text transform="matrix(0.8 0 0 1 492.0596 69.4728)" class="st21 st16">Integrating Mesoscale Human Brain Measurements</text>
		<text transform="matrix(0.8 0 0 1 492.0596 79.4728)" class="st21 st16">in the Human Visual Pathways</text>
	</g>
	<g>
		<text transform="matrix(0.8 0 0 1 492.0596 543.4025)" class="st21 st16">Club Night</text>
	</g>
	<g>
		<text transform="matrix(0.8 0 0 1 631.5225 69.7224)" class="st21 st23">Characterizing Brain Microstructure Using Magnetic Resonance </text>
		<text transform="matrix(0.8 0 0 1 631.5225 79.7224)" class="st21 st23">Imaging: Towards In-Vivo Histology</text>
	</g>
	<g>
		<text transform="matrix(0.8 0 0 1 631.5225 466.6584)" class="st21 st16">Closing Session</text>
	</g>
	<g>
		<text transform="matrix(0.8 0 0 1 74.3926 108.7531)" class="st21 st16">Neuroanatomy for Neuroimagers: Bringing a Systems-Level </text>
		<text transform="matrix(0.8 0 0 1 74.3926 118.7531)" class="st21 st16">Perspective to Neuroimaging Analyses</text>
	</g>
	<g>
		<text transform="matrix(0.8 0 0 1 74.3926 136.4362)" class="st21 st16">Current Frontiers in Statistical Inference for </text>
		<text transform="matrix(0.8 0 0 1 74.3926 146.4362)" class="st21 st16">Neuroimaging Data</text>
	</g>
	<g>
		<text transform="matrix(0.8 0 0 1 74.3926 55.2243)" class="st21 st16">Glass Brain Award</text>
	</g>
	<g>
		<text transform="matrix(0.8 0 0 1 213.7246 54.6638)" class="st21 st16">Open Science &amp; Education in Neuroimaging Awards</text>
	</g>
	<g>
		<text transform="matrix(0.8 0 0 1 352.6807 55.194)" class="st21 st16">Fellows &amp; Early Career Investigator Awards</text>
	</g>
	<g>
		<text transform="matrix(0.8 0 0 1 492.0596 54.6633)" class="st21 st16">Mentor, Diversity &amp; Replication Awards</text>
	</g>
	<g>
		<text transform="matrix(0.8 0 0 1 631.5225 55.1315)" class="st21 st16">Announcement of New OHBM Leadership</text>
	</g>
	<g>
		<text transform="matrix(0.8 0 0 1 74.3926 162.5832)" class="st21 st16">Neuromodulation of Disrupted Brain Networks:</text>
		<text transform="matrix(0.8 0 0 1 74.3926 172.5832)" class="st21 st16">Mechanisms, Optimal Targeting, and Individual Treatment</text>
	</g>
	<g>
		<text transform="matrix(0.8 0 0 1 74.3926 195.5764)" class="st21 st16">All Hands on Deck: Patching the Leaky Academic Pipeline</text>
	</g>
	<g>
		<text transform="matrix(0.8 0 0 1 213.7246 108.7023)" class="st21 st16">Imaging the Brainstem:</text>
		<text transform="matrix(0.8 0 0 1 213.7246 118.7023)" class="st21 st16">Approaches, Challenges and Opportunities</text>
	</g>
	<g>
		<text transform="matrix(0.8 0 0 1 213.7246 141.3859)" class="st21 st16">Learning From High-Dimensional Neuroimaging Data</text>
	</g>
	<g>
		<text transform="matrix(0.8 0 0 1 213.7246 168.5329)" class="st21 st16">Addressing the Social Limitations in Open Science</text>
	</g>
	<g>
		<text transform="matrix(0.8 0 0 1 213.7246 196.5256)" class="st21 st16">PET Imaging of Brain Connectivity: Hype or Future?</text>
	</g>
	<g>
		<text transform="matrix(0.8 0 0 1 352.6807 108.0427)" class="st21 st16">Communications in Brain Networks:</text>
		<text transform="matrix(0.8 0 0 1 352.6807 118.0427)" class="st21 st16">Models, Mechanisms and Applications</text>
	</g>
	<g>
		<text transform="matrix(0.8 0 0 1 352.6807 135.7263)" class="st21 st16">Inovations in Multi-Modal Data Fusion and </text>
		<text transform="matrix(0.8 0 0 1 352.6807 145.7263)" class="st21 st16">Data-Driven Discovery in Population Neuroimaging</text>
	</g>
	<g>
		<text transform="matrix(0.8 0 0 1 352.6807 162.8732)" class="st21 st16">Emerging Research in Infant Neuroimaging:</text>
		<text transform="matrix(0.8 0 0 1 352.6807 172.8732)" class="st21 st16">A Fit’ng Overview</text>
	</g>
	<g>
		<text transform="matrix(0.8 0 0 1 352.6807 189.8659)" class="st21 st16">Spatio-Temporal Brain Dynamics across Consciousness </text>
		<text transform="matrix(0.8 0 0 1 352.6807 199.8659)" class="st21 st16">Levels in Clinical and Healthy Populations</text>
	</g>
	<g>
		<text transform="matrix(0.8 0 0 1 492.0596 108.4245)" class="st21 st16">Mapping Cortical Morphology in the Human and </text>
		<text transform="matrix(0.8 0 0 1 492.0596 118.4245)" class="st21 st16">Non-Human Primate Brain and Relations to Function</text>
	</g>
	<g>
		<text transform="matrix(0.8 0 0 1 492.0605 136.1076)" class="st21 st16">OHBM-DGKN Alliance: International Symposium </text>
		<text transform="matrix(0.8 0 0 1 492.0605 146.1076)" class="st21 st16">on Network Reorganization After Stroke</text>
	</g>
	<g>
		<text transform="matrix(0.8 0 0 1 492.0605 163.2551)" class="st21 st16">Advances in Functional Neuroimaging of </text>
		<text transform="matrix(0.8 0 0 1 492.0605 173.2551)" class="st21 st16">Spontaneous Thought</text>
	</g>
	<g>
		<text transform="matrix(0.8 0 0 1 492.0596 196.2477)" class="st21 st16">Racial Bias in Neuroscience</text>
	</g>
	<g>
		<text transform="matrix(0.8 0 0 1 631.5215 108.4245)" class="st21 st16">From Bench to Bed-Side: Quantifying Brain Microstructure </text>
		<text transform="matrix(0.8 0 0 1 631.5215 118.4245)" class="st21 st16">Using Multi-Parameter MRI</text>
	</g>
	<g>
		<text transform="matrix(0.8 0 0 1 631.5234 136.1076)" class="st21 st16">Identifying and Reducing Model Bias </text>
		<text transform="matrix(0.8 0 0 1 631.5234 146.1076)" class="st21 st16">in Network Neuroscience</text>
	</g>
	<g>
		<text transform="matrix(0.8 0 0 1 631.5234 163.2546)" class="st21 st16">Simultaneous MRI-PET Imaging:</text>
		<text transform="matrix(0.8 0 0 1 631.5234 173.2546)" class="st21 st16">Recent Developments and Future Directions</text>
	</g>
	<g>
		<text transform="matrix(0.8 0 0 1 631.5234 189.5637)" class="st21 st16">Stress Sensitivity as a Predictor</text>
		<text transform="matrix(0.8 0 0 1 631.5234 199.5637)" class="st21 st16">of Long-Term Vulnerability Versus Stress Resiliance</text>
	</g>
	<g>
		<text transform="matrix(0.8 0 0 1 74.3926 248.4416)" class="st21 st16">Learning and Memory</text>
	</g>
	<g>
		<text transform="matrix(0.7927 0 0 1 131.3975 257.9406)" class="st18 st22">12-12:30AM Poster Highlights Room 1</text>
	</g>
	<g>
		<text transform="matrix(0.7927 0 0 1 131.376 285.4621)" class="st18 st22">12-12:30AM Poster Highlights Room 2</text>
	</g>
	<g>
		<text transform="matrix(0.7927 0 0 1 131.3408 312.6584)" class="st18 st22">12-12:30AM Poster Highlights Room 3</text>
	</g>
	<g>
		<text transform="matrix(0.7927 0 0 1 130.0312 338.0558)" class="st18 st22">12-12:30AM Poster Highlights Room 4</text>
	</g>
	<g>
		<text transform="matrix(0.7927 0 0 1 180.9824 580.2043)" class="st18 st22">Social Lounge</text>
	</g>
	<g>
		<text transform="matrix(0.7927 0 0 1 319.332 579.881)" class="st18 st22">Social Lounge</text>
	</g>
	<g>
		<text transform="matrix(0.7927 0 0 1 458.8535 580.467)" class="st18 st22">Social Lounge</text>
	</g>
	<g>
		<text transform="matrix(0.7927 0 0 1 454.3086 554.9103)" class="st18 st22">Symosium Hall 1</text>
	</g>
	<g>
		<text transform="matrix(0.7927 0 0 1 314.832 43.1921)" class="st18 st22">Symosium Hall 1</text>
	</g>
	<g>
		<text transform="matrix(0.7927 0 0 1 176.7559 79.4724)" class="st21 st16">Leah Krubitzer</text>
	</g>
	<g>
		<text transform="matrix(0.7927 0 0 1 311.6777 79.4728)" class="st21 st16">Anna Wang Roe</text>
	</g>
	<g>
		<text transform="matrix(0.7927 0 0 1 596.1367 79.4728)" class="st21 st16">Dora Hermes</text>
	</g>
	<g>
		<text transform="matrix(0.7927 0 0 1 726.0771 79.7224)" class="st21 st23">Nikolaus Weiskopf</text>
	</g>
	<g>
		<text transform="matrix(0.7927 0 0 1 450.3955 79.7228)" class="st21 st23">Ted Satterthwaite</text>
	</g>
	<g>
		<text transform="matrix(0.7927 0 0 1 602.416 579.9182)" class="st18 st22">Club OHBM</text>
	</g>
	<g>
		<text transform="matrix(0.8 0 0 1 74.3926 278.5978)" class="st21 st16">Software Demonstrations</text>
	</g>
	<g>
		<text transform="matrix(0.8 0 0 1 74.3926 305.7448)" class="st21 st16">Brain Stimulation</text>
	</g>
	<g>
		<text transform="matrix(0.8 0 0 1 74.3926 325.738)" class="st21 st16">Disorders of the Nervous System: Neurodegenerative </text>
		<text transform="matrix(0.8 0 0 1 74.3926 335.738)" class="st21 st16">/ Late Life</text>
	</g>
	<g>
		<text transform="matrix(0.8 0 0 1 213.7246 270.1179)" class="st21 st16">Disorders of the Nervous System: Neurodevelopmental </text>
		<text transform="matrix(0.8 0 0 1 213.7246 280.1179)" class="st21 st16">/ Early Life</text>
	</g>
	<g>
		<text transform="matrix(0.8 0 0 1 213.7246 248.8171)" class="st21 st16">Higher Cognitive Functions</text>
	</g>
	<g>
		<text transform="matrix(0.7927 0 0 1 269.9502 257.9406)" class="st18 st22">12-12:30AM Poster Highlights Room 1</text>
	</g>
	<g>
		<text transform="matrix(0.7927 0 0 1 269.9287 285.4621)" class="st18 st22">12-12:30AM Poster Highlights Room 2</text>
	</g>
	<g>
		<text transform="matrix(0.7927 0 0 1 269.8936 312.6584)" class="st18 st22">12-12:30AM Poster Highlights Room 3</text>
	</g>
	<g>
		<text transform="matrix(0.7927 0 0 1 268.584 338.0558)" class="st18 st22">12-12:30AM Poster Highlights Room 4</text>
	</g>
	<g>
		<text transform="matrix(0.7927 0 0 1 409.3105 257.9406)" class="st18 st22">12-12:30AM Poster Highlights Room 1</text>
	</g>
	<g>
		<text transform="matrix(0.7927 0 0 1 409.2891 285.4621)" class="st18 st22">12-12:30AM Poster Highlights Room 2</text>
	</g>
	<g>
		<text transform="matrix(0.7927 0 0 1 409.2539 312.6589)" class="st18 st22">12-12:30AM Poster Highlights Room 3</text>
	</g>
	<g>
		<text transform="matrix(0.7927 0 0 1 407.9443 338.0563)" class="st18 st22">12-12:30AM Poster Highlights Room 4</text>
	</g>
	<g>
		<text transform="matrix(0.8 0 0 1 213.7246 298.1203)" class="st21 st16">Modeling and Analysis: </text>
		<text transform="matrix(0.8 0 0 1 213.7246 308.1203)" class="st21 st16">Multivariate Approaches</text>
	</g>
	<g>
		<text transform="matrix(0.8 0 0 1 213.7246 330.1135)" class="st21 st16">Sleep, Consciousness, Pain</text>
	</g>
	<g>
		<text transform="matrix(0.8 0 0 1 352.6807 247.2165)" class="st21 st16">Social Neuroscience, Emotion and Motivation</text>
	</g>
	<g>
		<text transform="matrix(0.8 0 0 1 352.6807 275.2868)" class="st21 st16">Neuroinformatics and Data Sharing</text>
	</g>
	<g>
		<text transform="matrix(0.8 0 0 1 352.6807 302.3527)" class="st21 st16">Disorders of the Nervous System: Psychiatric</text>
	</g>
	<g>
		<text transform="matrix(0.8 0 0 1 352.6807 329.2551)" class="st21 st16">Neuroanatomy</text>
	</g>
	<g>
		<text transform="matrix(0.7927 0 0 1 546.4082 257.9406)" class="st18 st22">12-12:30AM Poster Highlights Room 1</text>
	</g>
	<g>
		<text transform="matrix(0.7927 0 0 1 546.3877 285.4621)" class="st18 st22">12-12:30AM Poster Highlights Room 2</text>
	</g>
	<g>
		<text transform="matrix(0.7927 0 0 1 546.3516 312.6584)" class="st18 st22">12-12:30AM Poster Highlights Room 3</text>
	</g>
	<g>
		<text transform="matrix(0.7927 0 0 1 545.043 338.0558)" class="st18 st22">12-12:30AM Poster Highlights Room 4</text>
	</g>
	<g>
		<text transform="matrix(0.8 0 0 1 492.0596 249.1017)" class="st21 st16">Language</text>
	</g>
	<g>
		<text transform="matrix(0.8 0 0 1 492.0596 277.1721)" class="st21 st16">Modeling and Analysis: Activation</text>
	</g>
	<g>
		<text transform="matrix(0.8 0 0 1 492.0596 303.2375)" class="st21 st16">Lifespan Development</text>
	</g>
	<g>
		<text transform="matrix(0.8 0 0 1 492.0596 330.1403)" class="st21 st16">Genetics</text>
	</g>
	<g>
		<text transform="matrix(0.7927 0 0 1 687.5703 257.9406)" class="st18 st22">12-12:30AM Poster Highlights Room 1</text>
	</g>
	<g>
		<text transform="matrix(0.7927 0 0 1 687.5488 285.4621)" class="st18 st22">12-12:30AM Poster Highlights Room 2</text>
	</g>
	<g>
		<text transform="matrix(0.7927 0 0 1 687.5137 312.6589)" class="st18 st22">12-12:30AM Poster Highlights Room 3</text>
	</g>
	<g>
		<text transform="matrix(0.7927 0 0 1 686.2041 338.0554)" class="st18 st22">12-12:30AM Poster Highlights Room 4</text>
	</g>
	<g>
		<g>
			<text transform="matrix(0.8 0 0 1 631.5225 217.3054)" class="st21 st16">How Can Scientists Respond to the Climate Emergency?</text>
			<text transform="matrix(0.8 0 0 1 631.5225 227.3054)" class="st21 st16">A Guide From the SEA SIG</text>
		</g>
	</g>
	<g>
		<text transform="matrix(0.8 0 0 1 631.5234 248.1013)" class="st21 st16">Perception, Attention and Motor Behavior</text>
	</g>
	<g>
		<text transform="matrix(0.8 0 0 1 631.5225 276.1716)" class="st21 st16">Modeling and Analysis: Connectivity</text>
	</g>
	<g>
		<text transform="matrix(0.8 0 0 1 631.5225 302.2375)" class="st21 st16">Physiology, Metabolism and Neurotransmission</text>
	</g>
	<g>
		<text transform="matrix(0.8 0 0 1 631.5234 329.1398)" class="st21 st16">Novel Imaging Acquisition Methods</text>
	</g>
	<g>
		<text transform="matrix(0.8 0 0 1 74.3926 352.7639)" class="st21 st16">Transitioning From Academia to Industry: </text>
		<text transform="matrix(0.8 0 0 1 74.3926 362.7639)" class="st21 st16">Why, When, How and Where?</text>
	</g>
	<g>
		<text transform="matrix(0.8 0 0 1 74.3926 406.7546)" class="st21 st16">Neuroimaging Best Practices Beyond Open Science: </text>
		<text transform="matrix(0.8 0 0 1 74.3926 416.7546)" class="st21 st16">Ethics, Collaborations and High Quality Research</text>
	</g>
	<g>
		<text transform="matrix(0.8 0 0 1 74.3926 386.006)" class="st21 st16">Glass Brain Interview</text>
	</g>
	<g>
		<text transform="matrix(0.8 0 0 1 492.0596 411.7546)" class="st21 st16">Kidz Live Review: Portugese</text>
	</g>
	<g>
		<text transform="matrix(0.8 0 0 1 354.0908 357.7634)" class="st21 st16">Kidz Live Review: French</text>
	</g>
	<g>
		<text transform="matrix(0.8 0 0 1 352.8242 386.0065)" class="st21 st16">Kidz Live Review: Italian</text>
	</g>
	<g>
		<text transform="matrix(0.8 0 0 1 492.0605 357.7639)" class="st21 st16">Diversity Roundtable</text>
	</g>
	<g>
		<text transform="matrix(0.8 0 0 1 492.0596 386.006)" class="st21 st16">Aperture and Open Science Roundtable</text>
	</g>
	<g>
		<text transform="matrix(0.8 0 0 1 492.0596 438.548)" class="st21 st16">Kidz Live Review: Spanish</text>
	</g>
	<g>
		<text transform="matrix(0.8 0 0 1 492.0596 461.6584)" class="st21 st16">The OHBM Conference Model Post-COVID: </text>
		<text transform="matrix(0.8 0 0 1 492.0596 471.6584)" class="st21 st16">What Should it Look Like?</text>
	</g>
	<g>
		<text transform="matrix(0.8 0 0 1 352.6807 433.549)" class="st21 st16">Getting the Incentives Right: </text>
		<text transform="matrix(0.8 0 0 1 352.6807 443.549)" class="st21 st16">Rethinking How We Define Acadmic Success</text>
	</g>
	<g>
		<text transform="matrix(0.8 0 0 1 353.623 406.7546)" class="st21 st16">Navigating academic careers: What are our options</text>
		<text transform="matrix(0.8 0 0 1 353.623 416.7546)" class="st21 st16">and how can we reach our goals?</text>
	</g>
	<g>
		<text transform="matrix(0.8 0 0 1 213.7246 386.006)" class="st21 st16">Failure Five Ways Roundtable</text>
	</g>
	<g>
		<text transform="matrix(0.8 0 0 1 213.7246 411.7546)" class="st21 st16">OHBM Leadership Open House</text>
	</g>
	<g>
		<text transform="matrix(0.8 0 0 1 213.7246 357.7639)" class="st21 st16">Research Funding Roundtable</text>
	</g>
	<g>
		<text transform="matrix(0.8 0 0 1 74.3926 520.2482)" class="st21 st16">Open Discussions</text>
	</g>
	<g>
		<text transform="matrix(0.8 0 0 1 213.7246 520.2482)" class="st21 st16">Open Discussions</text>
	</g>
	<g>
		<text transform="matrix(0.8 0 0 1 352.6807 520.2482)" class="st21 st16">Open Discussions</text>
	</g>
	<g>
		<text transform="matrix(0.8 0 0 1 492.0596 520.2482)" class="st21 st16">Open Discussions</text>
	</g>
	<g>
		<text transform="matrix(1 0 0 1 129.082 493.8048)" class="st18 st22">Let’s Talk: Best Practices in fNIRS!</text>
	</g>
	<g>
		<text transform="matrix(1 0 0 1 258.4008 489.5111)" class="st18 st24">fNIRS - Do I Need Short Channels and </text>
		<text transform="matrix(1 0 0 1 258.4008 497.5111)" class="st18 st24">What Do I Gain From Adding Physiology?</text>
	</g>
	<g>
		<text transform="matrix(0.8 0 0 1 74.3926 494.0978)" class="st21 st16">Exhibitors Hour</text>
	</g>
	<g>
		<text transform="matrix(0.8 0 0 1 213.7246 494.0978)" class="st21 st16">Exhibitors Hour</text>
	</g>
	<g>
		<text transform="matrix(0.8 0 0 1 352.6807 494.0988)" class="st21 st16">Exhibitors Hour</text>
	</g>
	<g>
		<text transform="matrix(0.8 0 0 1 492.0605 494.0988)" class="st21 st16">Exhibitors Hour</text>
	</g>
	<g>
		<text transform="matrix(0.7927 0 0 1 63.9395 290.9846)" class="st20 st16">&amp;</text>
	</g>
	<text transform="matrix(1 0 0 1 254.6392 43.192)" class="st18 st22">Sponsored Symposium</text>
	<text transform="matrix(1 0 0 1 427.365 554.9105)" class="st18 st22">Sponsored</text>
	<text transform="matrix(1 0 0 1 428.6475 489.8047)" class="st18 st22">Does Your Scanner Give</text>
	<text transform="matrix(1 0 0 1 428.6475 497.8047)" class="st18 st22">You Consistent Results?</text>
	<text transform="matrix(0.8 0 0 1 14.2778 277.3273)" class="st21 st16">Africa/Americas/Europe</text>
</g>
</svg>
