<?xml version="1.0" encoding="utf-8"?>
<!-- Generator: Adobe Illustrator 25.3.0, SVG Export Plug-In . SVG Version: 6.00 Build 0)  -->
<svg version="1.1" xmlns="http://www.w3.org/2000/svg" xmlns:xlink="http://www.w3.org/1999/xlink" x="0px" y="0px"
	 width="841.89px" height="595.28px" viewBox="0 0 841.89 595.28" style="enable-background:new 0 0 841.89 595.28;"
	 xml:space="preserve">
<style type="text/css">
	.st0{opacity:0.5;fill:#72B546;}
	.st1{opacity:0.5;fill:#B0562D;}
	.st2{opacity:0.5;fill:#B59E27;}
	.st3{opacity:0.5;fill:#2D9BB5;}
	.st4{opacity:0.5;fill:#763AB0;}
	.st5{opacity:0.5;fill:#2832B5;}
	.st6{opacity:0.5;fill:#9C2A42;}
	.st7{fill:none;stroke:#000000;stroke-width:0.5;stroke-miterlimit:10;}
	.st8{fill:none;stroke:#000000;stroke-miterlimit:10;}
	.st9{opacity:0.6;}
	.st10{fill:none;stroke:#000000;stroke-width:0.25;stroke-miterlimit:10;}
	.st11{fill:none;stroke:#000000;stroke-width:0.25;stroke-miterlimit:10;stroke-dasharray:1.9987,1.9987;}
	.st12{fill:none;}
	.st13{fill:none;stroke:#000000;stroke-width:0.25;stroke-miterlimit:10;stroke-dasharray:2.0051,2.0051;}
	.st14{fill:none;stroke:#000000;stroke-width:0.25;stroke-miterlimit:10;stroke-dasharray:0.9933,4.9663;}
	.st15{fill:#FFFFFF;}
	.st16{opacity:0.5;fill:#7E79C2;}
	.st17{opacity:0.5;fill:#6A4A49;}
	.st18{font-family:'MyriadPro-Cond';}
	.st19{font-size:10px;}
	.st20{font-family:'MyriadPro-BoldCond';}
	.st21{font-family:'MyriadPro-LightCond';}
	.st22{font-family:'MyriadPro-LightCondIt';}
	.st23{font-size:9px;}
	.st24{font-family:'MyriadPro-SemiboldCond';}
	.st25{font-size:8px;}
	.st26{font-size:9.5px;}
</style>
<g id="background">
	<rect x="71.6" y="57.14" class="st1" width="695.91" height="29.37"/>
	<rect x="71.6" y="98.13" class="st2" width="695.91" height="134.48"/>
	<rect x="71.6" y="233.1" class="st0" width="695.56" height="107.68"/>
	<rect x="71.6" y="340.78" class="st3" width="695.56" height="189.24"/>
	<rect x="72.19" y="529.81" class="st4" width="277.98" height="53.79"/>
	<rect x="488.73" y="529.81" class="st4" width="139.67" height="53.79"/>
	<rect x="350.2" y="556.7" class="st4" width="138.53" height="27.3"/>
	<rect x="350.18" y="529.81" class="st5" width="138.55" height="26.9"/>
	<rect x="210.39" y="23.16" class="st5" width="139.81" height="22.49"/>
	<rect x="71.6" y="45.65" class="st6" width="695.91" height="11.49"/>
</g>
<g id="lines">
	<line class="st7" x1="767.51" y1="0" x2="767.16" y2="530.02"/>
	<line class="st8" x1="34.34" y1="23.16" x2="841.89" y2="23.16"/>
	<line class="st8" x1="34.34" y1="45.65" x2="841.53" y2="45.65"/>
	<line class="st7" x1="34.34" y1="57.14" x2="767.51" y2="57.14"/>
	<line class="st8" x1="34.34" y1="98.13" x2="841.53" y2="98.13"/>
	<line class="st8" x1="34.34" y1="85.64" x2="841.53" y2="85.64"/>
	<g>
		<g class="st9">
			<line class="st10" x1="71.6" y1="125.12" x2="72.6" y2="125.12"/>
			<line class="st13" x1="74.6" y1="125.12" x2="839.53" y2="125.12"/>
			<line class="st10" x1="840.53" y1="125.12" x2="841.53" y2="125.12"/>
		</g>
	</g>
	<g>
		<g class="st9">
			<line class="st10" x1="71.6" y1="152.12" x2="72.6" y2="152.12"/>
			<line class="st13" x1="74.6" y1="152.12" x2="839.53" y2="152.12"/>
			<line class="st10" x1="840.53" y1="152.12" x2="841.53" y2="152.12"/>
		</g>
	</g>
	<g>
		<g class="st9">
			<line class="st10" x1="71.6" y1="179.11" x2="72.6" y2="179.11"/>
			<line class="st13" x1="74.6" y1="179.11" x2="839.53" y2="179.11"/>
			<line class="st10" x1="840.53" y1="179.11" x2="841.53" y2="179.11"/>
		</g>
	</g>
	<g>
		<g class="st9">
			<line class="st10" x1="71.6" y1="206.11" x2="72.6" y2="206.11"/>
			<line class="st13" x1="74.6" y1="206.11" x2="839.53" y2="206.11"/>
			<line class="st10" x1="840.53" y1="206.11" x2="841.53" y2="206.11"/>
		</g>
	</g>
	<g>
		<g class="st9">
			<line class="st10" x1="71.6" y1="260.09" x2="72.6" y2="260.09"/>
			<line class="st11" x1="74.6" y1="260.09" x2="765.16" y2="260.09"/>
			<line class="st10" x1="766.16" y1="260.09" x2="767.16" y2="260.09"/>
		</g>
	</g>
	<g>
		<g class="st9">
			<line class="st10" x1="71.6" y1="287.09" x2="72.6" y2="287.09"/>
			<line class="st11" x1="74.6" y1="287.09" x2="765.16" y2="287.09"/>
			<line class="st10" x1="766.16" y1="287.09" x2="767.16" y2="287.09"/>
		</g>
	</g>
	<g>
		<g class="st9">
			<line class="st10" x1="71.6" y1="314.08" x2="72.6" y2="314.08"/>
			<line class="st11" x1="74.6" y1="314.08" x2="765.16" y2="314.08"/>
			<line class="st10" x1="766.16" y1="314.08" x2="767.16" y2="314.08"/>
		</g>
	</g>
	<g>
		<g class="st9">
			<line class="st10" x1="71.6" y1="395.06" x2="72.6" y2="395.06"/>
			<line class="st13" x1="74.6" y1="395.06" x2="839.53" y2="395.06"/>
			<line class="st10" x1="840.53" y1="395.06" x2="841.53" y2="395.06"/>
		</g>
	</g>
	<g>
		<g class="st9">
			<line class="st10" x1="71.6" y1="368.07" x2="72.6" y2="368.07"/>
			<line class="st13" x1="74.6" y1="368.07" x2="839.53" y2="368.07"/>
			<line class="st10" x1="840.53" y1="368.07" x2="841.53" y2="368.07"/>
		</g>
	</g>
	<g>
		<g class="st9">
			<line class="st10" x1="71.6" y1="422.05" x2="72.6" y2="422.05"/>
			<line class="st13" x1="74.6" y1="422.05" x2="839.53" y2="422.05"/>
			<line class="st10" x1="840.53" y1="422.05" x2="841.53" y2="422.05"/>
		</g>
	</g>
	<g>
		<g class="st9">
			<line class="st10" x1="71.6" y1="449.04" x2="72.6" y2="449.04"/>
			<line class="st13" x1="74.6" y1="449.04" x2="839.53" y2="449.04"/>
			<line class="st10" x1="840.53" y1="449.04" x2="841.53" y2="449.04"/>
		</g>
	</g>
	<g>
		<g class="st9">
			<line class="st10" x1="71.6" y1="476.04" x2="72.6" y2="476.04"/>
			<line class="st13" x1="74.6" y1="476.04" x2="839.53" y2="476.04"/>
			<line class="st10" x1="840.53" y1="476.04" x2="841.53" y2="476.04"/>
		</g>
	</g>
	<g>
		<g class="st9">
			<line class="st10" x1="71.6" y1="503.03" x2="72.6" y2="503.03"/>
			<line class="st13" x1="74.6" y1="503.03" x2="839.53" y2="503.03"/>
			<line class="st10" x1="840.53" y1="503.03" x2="841.53" y2="503.03"/>
		</g>
	</g>
	<g>
		<g class="st9">
			<line class="st10" x1="71.6" y1="530.02" x2="72.6" y2="530.02"/>
			<line class="st13" x1="74.6" y1="530.02" x2="839.53" y2="530.02"/>
			<line class="st10" x1="840.53" y1="530.02" x2="841.53" y2="530.02"/>
		</g>
	</g>
	<line class="st8" x1="34.34" y1="233.1" x2="841.53" y2="233.1"/>
	<line class="st8" x1="35.04" y1="341.07" x2="841.53" y2="341.07"/>
	<line class="st8" x1="34.34" y1="530.02" x2="841.53" y2="530.02"/>
	<line class="st8" x1="350.2" y1="557.01" x2="488.73" y2="557.01"/>
	<line class="st8" x1="34.34" y1="584" x2="628.82" y2="583.6"/>
	<line class="st7" x1="71.95" y1="0" x2="71.95" y2="583.6"/>
	<line class="st7" x1="211.07" y1="0" x2="211.07" y2="583.6"/>
	<line class="st7" x1="350.18" y1="0" x2="350.18" y2="583.6"/>
	<line class="st7" x1="489.29" y1="0" x2="489.29" y2="583.6"/>
	<line class="st7" x1="628.4" y1="0" x2="628.4" y2="583.6"/>
	<g>
		<g>
			<line class="st10" x1="34.34" y1="556.99" x2="34.84" y2="556.99"/>
			<line class="st14" x1="39.8" y1="556.99" x2="347.22" y2="556.99"/>
			<line class="st10" x1="349.7" y1="556.99" x2="350.2" y2="556.99"/>
		</g>
	</g>
</g>
<g id="information_text">
	<g>
		<g>
			<g>
				<text transform="matrix(0.7927 0 0 1 770.0879 16.4029)" class="st18 st19">Location</text>
			</g>
		</g>
	</g>
	<g>
		<text transform="matrix(0.7927 0 0 1 52.0645 95.7049)" class="st20 st19">Break</text>
	</g>
	<g>
		<text transform="matrix(0.7927 0 0 1 770.0878 117.4021)" class="st21 st19">Symposium Hall 1</text>
	</g>
	<g>
		<text transform="matrix(0.7927 0 0 1 770.0876 143.0966)" class="st21 st19">Symposium Hall 2</text>
	</g>
	<g>
		<text transform="matrix(0.7927 0 0 1 770.0881 169.8047)" class="st21 st19">Symposium Hall 3</text>
	</g>
	<g>
		<text transform="matrix(0.7927 0 0 1 770.0878 196.9773)" class="st21 st19">Symposium Hall 4</text>
	</g>
	<g>
		<text transform="matrix(0.7927 0 0 1 770.088 223.2758)" class="st21 st19">Main Auditorium</text>
	</g>
	<g>
		<text transform="matrix(0.7927 0 0 1 770.0883 359.0738)" class="st21 st19">Symposium Hall 1</text>
	</g>
	<g>
		<text transform="matrix(0.7927 0 0 1 770.0878 387.3517)" class="st21 st19">Symposium Hall 2</text>
	</g>
	<g>
		<text transform="matrix(0.7927 0 0 1 770.0882 413.6427)" class="st21 st19">Symposium Hall 3</text>
	</g>
	<g>
		<text transform="matrix(0.7927 0 0 1 770.0876 438.9288)" class="st21 st19">Symposium Hall 4</text>
	</g>
	<g>
		<text transform="matrix(0.7927 0 0 1 770.0883 467.1698)" class="st21 st19">Main Auditorium</text>
	</g>
	<g>
		<text transform="matrix(0.7927 0 0 1 770.088 71.3926)" class="st21 st19">Main Auditorium</text>
	</g>
	<g>
		<text transform="matrix(0.7927 0 0 1 770.0881 494.5896)" class="st21 st19">Exhibitors Hall</text>
	</g>
	<g>
		<text transform="matrix(0.7927 0 0 1 770.0884 520.8384)" class="st21 st19">Open Discussion Tables</text>
	</g>
	<g>
		<text transform="matrix(0.7927 0 0 1 770.0881 275.8399)" class="st21 st19">Posterhall</text>
	</g>
	<g>
		<text transform="matrix(0.7927 0 0 1 770.2878 312.3331)"><tspan x="0" y="0" class="st22 st23">Poster Highlights sessions are</tspan><tspan x="0" y="9" class="st22 st23">scheduled for first 30 min of </tspan><tspan x="0" y="18" class="st22 st23">poster session</tspan></text>
	</g>
	<g>
		<text transform="matrix(0.7927 0 0 1 13.4823 169.9373)"><tspan x="0" y="0" class="st22 st23">Live summary presentations</tspan><tspan x="27.73" y="12" class="st22 st23">followed by Q&amp;A</tspan></text>
	</g>
	<g>
		<text transform="matrix(0.7927 0 0 1 42.8058 75.7983)" class="st20 st19">Keynotes</text>
	</g>
	<g>
		<text transform="matrix(0.7927 0 0 1 41.9341 155.193)" class="st20 st19">Symposia</text>
	</g>
	<g>
		<text transform="matrix(0.7927 0 0 1 48.0617 266.8877)" class="st20 st19">Posters</text>
	</g>
	<g>
		<text transform="matrix(0.7927 0 0 1 20.5876 304.749)" class="st20 st19">Poster Highlights</text>
	</g>
	<g>
		<text transform="matrix(0.7927 0 0 1 33.2382 437.9625)" class="st20 st19">Roundtables</text>
	</g>
	<g>
		<text transform="matrix(0.7927 0 0 1 48.061 55.2245)" class="st20 st19">Awards</text>
	</g>
	<g>
		<g>
			<g>
				<text transform="matrix(0.7927 0 0 1 770.0879 581.3041)" class="st22 st19">version 1 ­— June 1, 2021</text>
			</g>
		</g>
	</g>
	<rect x="48.12" y="550.73" class="st15" width="20.41" height="12.56"/>
	<g>
		<text transform="matrix(0.7927 0 0 1 49.5044 559.7314)" class="st20 st19">Socials</text>
	</g>
	<g>
		<text transform="matrix(0.7927 0 0 1 124.6963 16.2715)" class="st18 st19">TZD1</text>
	</g>
	<g>
		<text transform="matrix(0.7927 0 0 1 7.3215 16.2715)" class="st24 st19">TZXM: TZTITLE</text>
	</g>
	<g>
		<text transform="matrix(0.7927 0 0 1 263.1104 16.2715)" class="st18 st19">TZD2</text>
	</g>
	<g>
		<text transform="matrix(0.7927 0 0 1 397.8262 16.2715)" class="st18 st19">TZD3</text>
	</g>
	<g>
		<text transform="matrix(0.7927 0 0 1 539.8613 16.2715)" class="st18 st19">TZD4</text>
	</g>
	<g>
		<text transform="matrix(0.7927 0 0 1 679.832 16.2715)" class="st18 st19">TZD5</text>
	</g>
	<g>
		<g>
			<text transform="matrix(0.7927 0 0 1 8 28.177)" class="st18 st19">T1XM</text>
		</g>
		<g>
			<text transform="matrix(0.7927 0 0 1 8 47.6077)" class="st18 st19">T2XM</text>
		</g>
		<g>
			<text transform="matrix(0.7927 0 0 1 8 59.7796)" class="st18 st19">T3XM</text>
		</g>
		<g>
			<text transform="matrix(0.7927 0 0 1 8 87.7356)" class="st18 st19">T4XM</text>
		</g>
		<g>
			<text transform="matrix(0.7927 0 0 1 8 100.3538)" class="st18 st19">T5XM</text>
		</g>
		<g>
			<text transform="matrix(0.7927 0 0 1 8 235.386)" class="st18 st19">T6XM</text>
		</g>
		<g>
			<text transform="matrix(0.7927 0 0 1 8 344.7898)" class="st18 st19">T7XM</text>
		</g>
		<g>
			<text transform="matrix(0.7927 0 0 1 8 532.3953)" class="st18 st19">T8XM</text>
		</g>
		<g>
			<text transform="matrix(0.7927 0 0 1 8 560.5424)" class="st18 st19">T9XM</text>
		</g>
		<g>
			<text transform="matrix(0.7927 0 0 1 8 585.6268)" class="st18 st19">T10XM</text>
		</g>
	</g>
	<g>
		<text transform="matrix(0.7927 0 0 1 36.1737 315.2439)" class="st22 st23">(T11XM)</text>
	</g>
	<g>
		<text transform="matrix(0.7927 0 0 1 770.173 289.4065)"><tspan x="0" y="0" class="st22 st23">All posters are located </tspan><tspan x="0" y="9" class="st22 st23">in the Posterhall</tspan></text>
	</g>
	<text transform="matrix(0.8 0 0 1 13.606 277.434)" class="st21 st19">Americas/Asia/Australia</text>
</g>
<g id="text">
	<g>
		<text transform="matrix(0.8 0 0 1 74.3925 69.9983)"><tspan x="0" y="0" class="st21 st19">Combinatorial Creatures: Cortical Plasticity </tspan><tspan x="0" y="10" class="st21 st19">Within  and Across Lifetimes</tspan></text>
	</g>
	<g>
		<text transform="matrix(0.8 0 0 1 74.3926 543.4027)" class="st21 st19">Welcome reception</text>
	</g>
	<g>
		<text transform="matrix(1 0 0 1 213.7246 32.9422)" class="st22 st23">Philips: </text>
		<text transform="matrix(0.7927 0 0 1 232.7773 32.9422)" class="st21 st19">Diagnostic Confidence in Neuro with Speed </text>
		<text transform="matrix(0.7927 0 0 1 213.7246 42.9422)" class="st21 st19">and Precision</text>
	</g>
	<g>
		<text transform="matrix(0.8 0 0 1 491.0599 69.9984)"><tspan x="0" y="0" class="st21 st19">INS-fMRI: a method for mapping mesoscale</tspan><tspan x="0" y="10" class="st21 st19">connectomes in onhuman primates</tspan></text>
	</g>
	<g>
		<text transform="matrix(0.8 0 0 1 213.7246 543.4027)" class="st21 st19">Student/Postdoc Special Interest Group (SIG) Party</text>
	</g>
	<g>
		<text transform="matrix(0.7927 0 0 1 351.5838 538.911)"><tspan x="0" y="0" class="st22 st23">Siemens:</tspan><tspan x="22.01" y="0" class="st21 st23"> Precision Estimates of Structure and Function Within the</tspan><tspan x="0" y="8" class="st21 st23">Individual &amp; INS-fMRI: A Method for Mapping Mesoscale </tspan><tspan x="0" y="16" class="st21 st23">Connectomes in Nonhuman Primates</tspan></text>
	</g>
	<g>
		<text transform="matrix(0.8 0 0 1 352.6807 572.0873)" class="st21 st19">Fun with the Sustainability &amp; Environmental Action SIG</text>
	</g>
	<g>
		<text transform="matrix(0.8 0 0 1 213.7248 69.9981)"><tspan x="0" y="0" class="st21 st19">Integrating Mesoscale Human Brain Measurements</tspan><tspan x="0" y="10" class="st21 st19">in the Human Visual Pathways</tspan></text>
	</g>
	<g>
		<text transform="matrix(0.8 0 0 1 491.0596 543.4027)" class="st21 st19">Club Night</text>
	</g>
	<g>
		<text transform="matrix(0.7927 0 0 1 630.5225 466.8667)" class="st21 st19">Closing Session</text>
	</g>
	<g>
		<text transform="matrix(0.8 0 0 1 353.1721 109.2047)"><tspan x="0" y="0" class="st21 st19">Neuroanatomy for Neuroimagers: Bringing a Systems-Level </tspan><tspan x="0" y="10" class="st21 st19">Perspective to Neuroimaging Analyses</tspan></text>
	</g>
	<g>
		<text transform="matrix(0.8 0 0 1 353.1719 137.2601)"><tspan x="0" y="0" class="st21 st19">Current Frontiers in Statistical Inference for </tspan><tspan x="0" y="10" class="st21 st19">Neuroimaging Data</tspan></text>
	</g>
	<g>
		<text transform="matrix(0.7927 0 0 1 491.0595 55.1324)" class="st21 st19">Glass Brain &amp; Fellows Awards</text>
	</g>
	<g>
		<text transform="matrix(0.7927 0 0 1 352.9795 54.305)" class="st21 st19">Open Science &amp; Education in Neuroimaging Awards</text>
	</g>
	<g>
		<text transform="matrix(0.7927 0 0 1 74.3923 54.3047)" class="st21 st19">Early Career Investigator Award</text>
	</g>
	<g>
		<text transform="matrix(0.7927 0 0 1 213.7247 55.1319)" class="st21 st19">Mentor, Diversity &amp; Replication Awards</text>
	</g>
	<g>
		<text transform="matrix(0.7927 0 0 1 630.5223 55.1318)" class="st21 st19">Announcement of New OHBM Leadership</text>
	</g>
	<g>
		<text transform="matrix(0.8 0 0 1 353.1719 163.2072)"><tspan x="0" y="0" class="st21 st19">Neuromodulation of Disrupted Brain Networks:</tspan><tspan x="0" y="10" class="st21 st19">Mechanisms, Optimal Targeting, and Individual Treatment</tspan></text>
	</g>
	<g>
		<text transform="matrix(0.8 0 0 1 353.1719 195.6638)" class="st21 st19">All Hands on Deck: Patching the Leaky Academic Pipeline</text>
	</g>
	<g>
		<text transform="matrix(0.8 0 0 1 491.0595 109.2049)"><tspan x="0" y="0" class="st21 st19">Imaging the Brainstem:</tspan><tspan x="0" y="10" class="st21 st19">Approaches, Challenges and Opportunities</tspan></text>
	</g>
	<g>
		<text transform="matrix(0.8 0 0 1 491.0598 142.2603)" class="st21 st19">Learning From High-Dimensional Neuroimaging Data</text>
	</g>
	<g>
		<text transform="matrix(0.8 0 0 1 491.0598 168.2074)" class="st21 st19">Addressing the Social Limitations in Open Science</text>
	</g>
	<g>
		<text transform="matrix(0.8 0 0 1 491.0598 195.6632)" class="st21 st19">PET Imaging of Brain Connectivity: Hype or Future?</text>
	</g>
	<g>
		<text transform="matrix(0.8 0 0 1 630.522 109.2044)"><tspan x="0" y="0" class="st21 st19">Communications in Brain Networks:</tspan><tspan x="0" y="10" class="st21 st19">Models, Mechanisms and Applications</tspan></text>
	</g>
	<g>
		<text transform="matrix(0.8 0 0 1 630.5223 137.2608)"><tspan x="0" y="0" class="st21 st19">Inovations in Multi-Modal Data Fusion and </tspan><tspan x="0" y="10" class="st21 st19">Data-Driven Discovery in Population Neuroimaging</tspan></text>
	</g>
	<g>
		<text transform="matrix(0.8 0 0 1 630.5223 163.2076)"><tspan x="0" y="0" class="st21 st19">Emerging Research in Infant Neuroimaging:</tspan><tspan x="0" y="10" class="st21 st19">A Fit’ng Overview</tspan></text>
	</g>
	<g>
		<text transform="matrix(0.8 0 0 1 630.5223 190.6637)"><tspan x="0" y="0" class="st21 st19">Spatio-Temporal Brain Dynamics across Consciousness </tspan><tspan x="0" y="10" class="st21 st19">Levels in Clinical and Healthy Populations</tspan></text>
	</g>
	<g>
		<text transform="matrix(0.8 0 0 1 74.3928 109.2043)"><tspan x="0" y="0" class="st21 st19">Mapping Cortical Morphology in the Human and </tspan><tspan x="0" y="10" class="st21 st19">Non-Human Primate Brain and Relations to Function</tspan></text>
	</g>
	<g>
		<text transform="matrix(0.8 0 0 1 74.3925 137.2607)"><tspan x="0" y="0" class="st21 st19">OHBM-DGKN Alliance: International Symposium </tspan><tspan x="0" y="10" class="st21 st19">on Network Reorganization After Stroke</tspan></text>
	</g>
	<g>
		<text transform="matrix(0.8 0 0 1 74.3925 163.2078)"><tspan x="0" y="0" class="st21 st19">Advances in Functional Neuroimaging of </tspan><tspan x="0" y="10" class="st21 st19">Spontaneous Thought</tspan></text>
	</g>
	<g>
		<text transform="matrix(0.8 0 0 1 74.3925 195.6635)" class="st21 st19">Racial Bias in Neuroscience</text>
	</g>
	<g>
		<text transform="matrix(0.8 0 0 1 213.7245 109.2043)"><tspan x="0" y="0" class="st21 st19">From Bench to Bed-Side: Quantifying Brain Microstructure </tspan><tspan x="0" y="10" class="st21 st19">Using Multi-Parameter MRI</tspan></text>
	</g>
	<g>
		<text transform="matrix(0.8 0 0 1 213.7247 137.2606)"><tspan x="0" y="0" class="st21 st19">Identifying and Reducing Model Bias </tspan><tspan x="0" y="10" class="st21 st19">in Network Neuroscience</tspan></text>
	</g>
	<g>
		<text transform="matrix(0.8 0 0 1 213.7247 163.2078)"><tspan x="0" y="0" class="st21 st19">Simultaneous MRI-PET Imaging:</tspan><tspan x="0" y="10" class="st21 st19">Recent Developments and Future Directions</tspan></text>
	</g>
	<g>
		<text transform="matrix(0.8 0 0 1 213.7247 190.6641)"><tspan x="0" y="0" class="st21 st19">Stress Sensitivity as a Predictor</tspan><tspan x="0" y="10" class="st21 st19">of Long-Term Vulnerability Versus Stress Resiliance</tspan></text>
	</g>
	<g>
		<text transform="matrix(0.8 0 0 1 213.7246 251.3368)" class="st21 st19">Learning and Memory</text>
	</g>
	<g>
		<text transform="matrix(0.7927 0 0 1 133.3973 257.9411)" class="st22 st23">T11XM Poster Highlights Room 1</text>
	</g>
	<g>
		<text transform="matrix(0.7927 0 0 1 133.376 285.4624)" class="st22 st23">T11XM Poster Highlights Room 2</text>
	</g>
	<g>
		<text transform="matrix(0.7927 0 0 1 133.3406 312.2826)" class="st22 st23">T11XM Poster Highlights Room 3</text>
	</g>
	<g>
		<text transform="matrix(0.7927 0 0 1 132.0314 338.0561)" class="st22 st23">T11XM Poster Highlights Room 4</text>
	</g>
	<g>
		<text transform="matrix(0.7927 0 0 1 180.9822 580.467)" class="st22 st23">Social Lounge</text>
	</g>
	<g>
		<text transform="matrix(0.7927 0 0 1 319.3315 580.4673)" class="st22 st23">Social Lounge</text>
	</g>
	<g>
		<text transform="matrix(0.7927 0 0 1 458.8541 580.4673)" class="st22 st23">Social Lounge</text>
	</g>
	<g>
		<text transform="matrix(0.7927 0 0 1 454.3089 554.9105)" class="st22 st23">Symosium Hall 1</text>
	</g>
	<g>
		<text transform="matrix(0.7927 0 0 1 314.8321 43.1922)" class="st22 st23">Symosium Hall 1</text>
	</g>
	<g>
		<text transform="matrix(0.8 0 0 1 172.7684 79.9984)" class="st21 st19">Leah Krubitzer</text>
	</g>
	<g>
		<text transform="matrix(0.8 0 0 1 585.8797 79.9986)" class="st21 st19">Anna Wang Roe</text>
	</g>
	<g>
		<text transform="matrix(0.8 0 0 1 314.5388 79.9981)" class="st21 st19">Dora Hermes</text>
	</g>
	<g>
		<text transform="matrix(0.7927 0 0 1 602.4155 580.467)" class="st22 st23">Club OHBM</text>
	</g>
	<g>
		<text transform="matrix(0.8 0 0 1 213.7245 276.0139)" class="st21 st19">Software Demonstrations</text>
	</g>
	<g>
		<text transform="matrix(0.8 0 0 1 630.5223 330.3335)" class="st21 st19">Brain Stimulation</text>
	</g>
	<g>
		<text transform="matrix(0.7927 0 0 1 213.7245 298.0522)"><tspan x="0" y="0" class="st21 st19">Disorders of the Nervous System: Neurodegenerative </tspan><tspan x="0" y="12" class="st21 st19">/ Late Life</tspan></text>
	</g>
	<g>
		<text transform="matrix(0.8 0 0 1 630.5221 251.3366)" class="st21 st19">Higher Cognitive Functions</text>
	</g>
	<g>
		<text transform="matrix(0.7927 0 0 1 271.9503 257.9408)" class="st22 st23">T11XM Poster Highlights Room 1</text>
	</g>
	<g>
		<text transform="matrix(0.7927 0 0 1 271.9289 285.462)" class="st22 st23">T11XM Poster Highlights Room 2</text>
	</g>
	<g>
		<text transform="matrix(0.7927 0 0 1 271.8935 312.6583)" class="st22 st23">T11XM Poster Highlights Room 3</text>
	</g>
	<g>
		<text transform="matrix(0.7927 0 0 1 270.5843 338.0558)" class="st22 st23">T11XM Poster Highlights Room 4</text>
	</g>
	<g>
		<text transform="matrix(0.7927 0 0 1 411.3106 257.9404)" class="st22 st23">T11XM Poster Highlights Room 1</text>
	</g>
	<g>
		<text transform="matrix(0.7927 0 0 1 411.2892 285.4627)" class="st22 st23">T11XM Poster Highlights Room 2</text>
	</g>
	<g>
		<text transform="matrix(0.7927 0 0 1 411.2538 312.489)" class="st22 st23">T11XM Poster Highlights Room 3</text>
	</g>
	<g>
		<text transform="matrix(0.7927 0 0 1 409.9446 338.0564)" class="st22 st23">T11XM Poster Highlights Room 4</text>
	</g>
	<g>
		<text transform="matrix(0.8 0 0 1 353.6946 271.2139)"><tspan x="0" y="0" class="st21 st19">Modeling and Analysis: </tspan><tspan x="0" y="10" class="st21 st19">Multivariate Approaches</tspan></text>
	</g>
	<g>
		<text transform="matrix(0.8 0 0 1 74.3927 272.9196)" class="st21 st19">Sleep, Consciousness, Pain</text>
	</g>
	<g>
		<text transform="matrix(0.8 0 0 1 491.0599 249.2329)" class="st21 st19">Social Neuroscience, Emotion and Motivation</text>
	</g>
	<g>
		<text transform="matrix(0.8 0 0 1 491.0596 276.0941)" class="st21 st19">Neuroinformatics and Data Sharing</text>
	</g>
	<g>
		<text transform="matrix(0.8 0 0 1 630.5222 304.2605)" class="st21 st19">Disorders of the Nervous System: Psychiatric</text>
	</g>
	<g>
		<text transform="matrix(0.8 0 0 1 491.0595 330.6582)" class="st21 st19">Neuroanatomy</text>
	</g>
	<g>
		<text transform="matrix(0.7927 0 0 1 548.4088 257.9408)" class="st22 st23">T11XM Poster Highlights Room 1</text>
	</g>
	<g>
		<text transform="matrix(0.7927 0 0 1 548.3874 285.4621)" class="st22 st23">T11XM Poster Highlights Room 2</text>
	</g>
	<g>
		<text transform="matrix(0.7927 0 0 1 548.352 312.3741)" class="st22 st23">T11XM Poster Highlights Room 3</text>
	</g>
	<g>
		<text transform="matrix(0.7927 0 0 1 547.0428 338.0558)" class="st22 st23">T11XM Poster Highlights Room 4</text>
	</g>
	<g>
		<text transform="matrix(0.8 0 0 1 74.3924 247.2328)" class="st21 st19">Language</text>
	</g>
	<g>
		<text transform="matrix(0.8 0 0 1 630.5223 276.0146)" class="st21 st19">Modeling and Analysis: Activation</text>
	</g>
	<g>
		<text transform="matrix(0.8 0 0 1 353.5686 304.7493)" class="st21 st19">Lifespan Development</text>
	</g>
	<g>
		<text transform="matrix(0.8 0 0 1 353.4096 330.6585)" class="st21 st19">Genetics</text>
	</g>
	<g>
		<text transform="matrix(0.7927 0 0 1 689.5704 257.9405)" class="st22 st23">T11XM Poster Highlights Room 1</text>
	</g>
	<g>
		<text transform="matrix(0.7927 0 0 1 689.549 285.4627)" class="st22 st23">T11XM Poster Highlights Room 2</text>
	</g>
	<g>
		<text transform="matrix(0.7927 0 0 1 689.5136 312.3737)" class="st22 st23">T11XM Poster Highlights Room 3</text>
	</g>
	<g>
		<text transform="matrix(0.7927 0 0 1 688.2044 338.0565)" class="st22 st23">T11XM Poster Highlights Room 4</text>
	</g>
	<g>
		<g>
			<text transform="matrix(0.8 0 0 1 213.7247 218.4458)"><tspan x="0" y="0" class="st21 st19">How Can Scientists Respond to the Climate Emergency?</tspan><tspan x="0" y="10" class="st21 st19">A Guide From the SEA SIG</tspan></text>
		</g>
	</g>
	<g>
		<text transform="matrix(0.8 0 0 1 353.5684 247.2329)" class="st21 st19">Perception, Attention and Motor Behavior</text>
	</g>
	<g>
		<text transform="matrix(0.8 0 0 1 74.3927 301.4312)" class="st21 st19">Modeling and Analysis: Connectivity</text>
	</g>
	<g>
		<text transform="matrix(0.8 0 0 1 491.0592 303.0517)" class="st21 st19">Physiology, Metabolism and Neurotransmission</text>
	</g>
	<g>
		<text transform="matrix(0.8 0 0 1 213.7248 329.5913)" class="st21 st19">Novel Imaging Acquisition Methods</text>
	</g>
	<g>
		<text transform="matrix(0.8 0 0 1 354.5822 352.9227)"><tspan x="0" y="0" class="st21 st19">Transitioning From Academia to Industry: </tspan><tspan x="0" y="10" class="st21 st19">Why, When, How and Where?</tspan></text>
	</g>
	<g>
		<text transform="matrix(0.8 0 0 1 355.0734 406.4885)"><tspan x="0" y="0" class="st21 st19">Neuroimaging Best Practices Beyond Open Science: </tspan><tspan x="0" y="10" class="st21 st19">Ethics, Collaborations and High Quality Research</tspan></text>
	</g>
	<g>
		<text transform="matrix(0.8 0 0 1 491.0595 357.9229)" class="st21 st19">Glass Brain Interview</text>
	</g>
	<g>
		<text transform="matrix(0.8 0 0 1 74.3928 411.488)" class="st21 st19">Kidz Live Review: Korean</text>
	</g>
	<g>
		<text transform="matrix(0.8 0 0 1 74.3928 385.2105)" class="st21 st19">Diversity Roundtable</text>
	</g>
	<g>
		<text transform="matrix(0.8 0 0 1 213.7248 357.9231)" class="st21 st19">Aperture and Open Science Roundtable</text>
	</g>
	<g>
		<text transform="matrix(0.8 0 0 1 213.7245 385.2105)" class="st21 st19">Chinese Young Scholars</text>
	</g>
	<g>
		<text transform="matrix(0.8 0 0 1 74.3928 352.9232)"><tspan x="0" y="0" class="st21 st19">Getting the Incentives Right: </tspan><tspan x="0" y="10" class="st21 st19">Rethinking How We Define Acadmic Success</tspan></text>
	</g>
	<g>
		<text transform="matrix(0.8 0 0 1 354.5822 385.2101)" class="st21 st19">Failure Five Ways Roundtable</text>
	</g>
	<g>
		<text transform="matrix(0.8 0 0 1 491.0596 385.2099)" class="st21 st19">OHBM Leadership Open House</text>
	</g>
	<g>
		<text transform="matrix(0.8 0 0 1 491.0593 411.4881)" class="st21 st19">Research Funding Roundtable</text>
	</g>
	<g>
		<text transform="matrix(0.8 0 0 1 74.3924 521.248)" class="st21 st19">Open Discussions</text>
	</g>
	<g>
		<text transform="matrix(0.8 0 0 1 213.7245 521.248)" class="st21 st19">Open Discussions</text>
	</g>
	<g>
		<text transform="matrix(0.8 0 0 1 352.6804 521.2482)" class="st21 st19">Open Discussions</text>
	</g>
	<g>
		<text transform="matrix(0.8 0 0 1 491.0594 521.2483)" class="st21 st19">Open Discussions</text>
	</g>
	<g>
		<text transform="matrix(1 0 0 1 129.082 493.805)" class="st22 st23">Let’s Talk: Best Practices in fNIRS!</text>
	</g>
	<g>
		<text transform="matrix(1 0 0 1 258.4008 489.5113)"><tspan x="0" y="0" class="st22 st25">fNIRS - Do I Need Short Channels and </tspan><tspan x="0" y="8" class="st22 st25">What Do I Gain From Adding Physiology?</tspan></text>
	</g>
	<g>
		<text transform="matrix(0.8 0 0 1 74.3927 494.0983)" class="st21 st19">Exhibitors Hour</text>
	</g>
	<g>
		<text transform="matrix(0.8 0 0 1 213.7245 494.0983)" class="st21 st19">Exhibitors Hour</text>
	</g>
	<g>
		<text transform="matrix(0.8 0 0 1 352.6806 494.0989)" class="st21 st19">Exhibitors Hour</text>
	</g>
	<g>
		<text transform="matrix(0.8 0 0 1 491.0598 494.0989)" class="st21 st19">Exhibitors Hour</text>
	</g>
	<g>
		<text transform="matrix(0.7927 0 0 1 63.9392 290.9848)" class="st20 st19">&amp;</text>
	</g>
	<text transform="matrix(1 0 0 1 254.6392 43.1922)" class="st22 st23">Sponsored Symposium</text>
	<text transform="matrix(1 0 0 1 427.365 554.9106)" class="st22 st23">Sponsored</text>
	<text transform="matrix(1 0 0 1 428.6474 489.8048)"><tspan x="0" y="0" class="st22 st23">Does Your Scanner Give</tspan><tspan x="0" y="8" class="st22 st23">You Consistent Results?</tspan></text>
	<g>
		<text transform="matrix(0.8 0 0 1 74.3926 324.5914)"><tspan x="0" y="0" class="st21 st19">Disorders of the Nervous System: Neurodevelopmental </tspan><tspan x="0" y="10" class="st21 st19">/ Early Life</tspan></text>
	</g>
	<g>
		<text transform="matrix(0.8 0 0 1 353.3157 433.1012)"><tspan x="0" y="0" class="st21 st19">The OHBM Conference Model Post-COVID: </tspan><tspan x="0" y="10" class="st21 st19">What Should it Look Like?</tspan></text>
	</g>
	<g>
		<text transform="matrix(0.8 0 0 1 74.3924 433.1013)"><tspan x="0" y="0" class="st21 st19">Navigating academic careers: What are our options</tspan><tspan x="0" y="10" class="st21 st19">and how can we reach our goals?</tspan></text>
	</g>
	<g>
		<text transform="matrix(0.8 0 0 1 630.5229 70.2488)"><tspan x="0" y="0" class="st21 st26">Neurodevelopment of the Association Cortices: Normative</tspan><tspan x="0" y="10" class="st21 st26">Patterns &amp; Implications for Psychopathology</tspan></text>
	</g>
	<g>
		<text transform="matrix(0.8 0 0 1 352.3204 70.2483)"><tspan x="0" y="0" class="st21 st26">Characterizing Brain Microstructure Using Magnetic Resonance </tspan><tspan x="0" y="10" class="st21 st26">Imaging: Towards In-Vivo Histology</tspan></text>
	</g>
	<g>
		<text transform="matrix(0.7927 0 0 1 444.8751 80.2483)" class="st21 st19">Nikolaus Weiskopf</text>
	</g>
	<g>
		<text transform="matrix(0.7927 0 0 1 727.2374 80.2489)" class="st21 st26">Ted Satterthwaite</text>
	</g>
</g>
</svg>
